G04 #@! TF.GenerationSoftware,KiCad,Pcbnew,(5.1.6)-1*
G04 #@! TF.CreationDate,2020-07-08T21:30:57-04:00*
G04 #@! TF.ProjectId,co2buddy,636f3262-7564-4647-992e-6b696361645f,rev?*
G04 #@! TF.SameCoordinates,Original*
G04 #@! TF.FileFunction,Paste,Top*
G04 #@! TF.FilePolarity,Positive*
%FSLAX46Y46*%
G04 Gerber Fmt 4.6, Leading zero omitted, Abs format (unit mm)*
G04 Created by KiCad (PCBNEW (5.1.6)-1) date 2020-07-08 21:30:57*
%MOMM*%
%LPD*%
G01*
G04 APERTURE LIST*
%ADD10R,1.430000X2.500000*%
%ADD11R,0.400000X1.650000*%
%ADD12R,2.000000X1.500000*%
%ADD13R,1.825000X0.700000*%
%ADD14R,1.350000X2.000000*%
%ADD15R,2.000000X0.900000*%
%ADD16R,0.900000X2.000000*%
%ADD17R,5.000000X5.000000*%
%ADD18R,0.650000X1.060000*%
G04 APERTURE END LIST*
D10*
X135985000Y-104740000D03*
X134065000Y-104740000D03*
D11*
X136325000Y-101590000D03*
X135675000Y-101590000D03*
X135025000Y-101590000D03*
X134375000Y-101590000D03*
X133725000Y-101590000D03*
D12*
X137925000Y-101470000D03*
X132175000Y-101490000D03*
D13*
X138025000Y-102790000D03*
X132075000Y-102790000D03*
D14*
X132295000Y-103540000D03*
X137775000Y-103540000D03*
D15*
X143525000Y-33005000D03*
X143525000Y-34275000D03*
X143525000Y-35545000D03*
X143525000Y-36815000D03*
X143525000Y-38085000D03*
X143525000Y-39355000D03*
X143525000Y-40625000D03*
X143525000Y-41895000D03*
X143525000Y-43165000D03*
X143525000Y-44435000D03*
X143525000Y-45705000D03*
X143525000Y-46975000D03*
X143525000Y-48245000D03*
X143525000Y-49515000D03*
D16*
X140740000Y-50515000D03*
X139470000Y-50515000D03*
X138200000Y-50515000D03*
X136930000Y-50515000D03*
X135660000Y-50515000D03*
X134390000Y-50515000D03*
X133120000Y-50515000D03*
X131850000Y-50515000D03*
X130580000Y-50515000D03*
X129310000Y-50515000D03*
D15*
X126525000Y-49515000D03*
X126525000Y-48245000D03*
X126525000Y-46975000D03*
X126525000Y-45705000D03*
X126525000Y-44435000D03*
X126525000Y-43165000D03*
X126525000Y-41895000D03*
X126525000Y-40625000D03*
X126525000Y-39355000D03*
X126525000Y-38085000D03*
X126525000Y-36815000D03*
X126525000Y-35545000D03*
X126525000Y-34275000D03*
X126525000Y-33005000D03*
D17*
X134025000Y-40505000D03*
D18*
X133825000Y-60890000D03*
X135725000Y-60890000D03*
X135725000Y-63090000D03*
X134775000Y-63090000D03*
X133825000Y-63090000D03*
G36*
G01*
X123150000Y-41375000D02*
X121900000Y-41375000D01*
G75*
G02*
X121650000Y-41125000I0J250000D01*
G01*
X121650000Y-40375000D01*
G75*
G02*
X121900000Y-40125000I250000J0D01*
G01*
X123150000Y-40125000D01*
G75*
G02*
X123400000Y-40375000I0J-250000D01*
G01*
X123400000Y-41125000D01*
G75*
G02*
X123150000Y-41375000I-250000J0D01*
G01*
G37*
G36*
G01*
X123150000Y-44175000D02*
X121900000Y-44175000D01*
G75*
G02*
X121650000Y-43925000I0J250000D01*
G01*
X121650000Y-43175000D01*
G75*
G02*
X121900000Y-42925000I250000J0D01*
G01*
X123150000Y-42925000D01*
G75*
G02*
X123400000Y-43175000I0J-250000D01*
G01*
X123400000Y-43925000D01*
G75*
G02*
X123150000Y-44175000I-250000J0D01*
G01*
G37*
G36*
G01*
X121930000Y-35685000D02*
X123180000Y-35685000D01*
G75*
G02*
X123430000Y-35935000I0J-250000D01*
G01*
X123430000Y-36685000D01*
G75*
G02*
X123180000Y-36935000I-250000J0D01*
G01*
X121930000Y-36935000D01*
G75*
G02*
X121680000Y-36685000I0J250000D01*
G01*
X121680000Y-35935000D01*
G75*
G02*
X121930000Y-35685000I250000J0D01*
G01*
G37*
G36*
G01*
X121930000Y-32885000D02*
X123180000Y-32885000D01*
G75*
G02*
X123430000Y-33135000I0J-250000D01*
G01*
X123430000Y-33885000D01*
G75*
G02*
X123180000Y-34135000I-250000J0D01*
G01*
X121930000Y-34135000D01*
G75*
G02*
X121680000Y-33885000I0J250000D01*
G01*
X121680000Y-33135000D01*
G75*
G02*
X121930000Y-32885000I250000J0D01*
G01*
G37*
G36*
G01*
X130150000Y-63175000D02*
X131400000Y-63175000D01*
G75*
G02*
X131650000Y-63425000I0J-250000D01*
G01*
X131650000Y-64175000D01*
G75*
G02*
X131400000Y-64425000I-250000J0D01*
G01*
X130150000Y-64425000D01*
G75*
G02*
X129900000Y-64175000I0J250000D01*
G01*
X129900000Y-63425000D01*
G75*
G02*
X130150000Y-63175000I250000J0D01*
G01*
G37*
G36*
G01*
X130150000Y-60375000D02*
X131400000Y-60375000D01*
G75*
G02*
X131650000Y-60625000I0J-250000D01*
G01*
X131650000Y-61375000D01*
G75*
G02*
X131400000Y-61625000I-250000J0D01*
G01*
X130150000Y-61625000D01*
G75*
G02*
X129900000Y-61375000I0J250000D01*
G01*
X129900000Y-60625000D01*
G75*
G02*
X130150000Y-60375000I250000J0D01*
G01*
G37*
G36*
G01*
X138150000Y-63175000D02*
X139400000Y-63175000D01*
G75*
G02*
X139650000Y-63425000I0J-250000D01*
G01*
X139650000Y-64175000D01*
G75*
G02*
X139400000Y-64425000I-250000J0D01*
G01*
X138150000Y-64425000D01*
G75*
G02*
X137900000Y-64175000I0J250000D01*
G01*
X137900000Y-63425000D01*
G75*
G02*
X138150000Y-63175000I250000J0D01*
G01*
G37*
G36*
G01*
X138150000Y-60375000D02*
X139400000Y-60375000D01*
G75*
G02*
X139650000Y-60625000I0J-250000D01*
G01*
X139650000Y-61375000D01*
G75*
G02*
X139400000Y-61625000I-250000J0D01*
G01*
X138150000Y-61625000D01*
G75*
G02*
X137900000Y-61375000I0J250000D01*
G01*
X137900000Y-60625000D01*
G75*
G02*
X138150000Y-60375000I250000J0D01*
G01*
G37*
M02*
