M48
; DRILL file {KiCad (5.1.6)-1} date 07/08/20 21:30:55
; FORMAT={-:-/ absolute / inch / decimal}
; #@! TF.CreationDate,2020-07-08T21:30:55-04:00
; #@! TF.GenerationSoftware,Kicad,Pcbnew,(5.1.6)-1
; #@! TF.FileFunction,Plated,1,2,PTH
FMAT,2
INCH
T1C0.0118
T2C0.0157
T3C0.0256
T4C0.0276
T5C0.0394
%
G90
G05
T1
X4.8593Y-1.8071
X5.127Y-1.8661
X5.4419Y-1.8819
X5.4577Y-2.1024
X5.5167Y-1.4528
X5.5207Y-1.5079
T2
X4.7254Y-1.3189
X4.9341Y-2.2402
X5.0522Y-2.5118
X5.0876Y-2.0591
X5.1309Y-1.3583
X5.2608Y-2.5551
X5.2726Y-1.4213
X5.3474Y-2.5591
X5.4852Y-1.3228
X5.5482Y-2.4016
X5.812Y-1.315
X5.9931Y-2.5118
T5
X5.06Y-2.2106
X5.16Y-2.2106
X5.26Y-2.2106
X5.36Y-2.2106
X5.46Y-2.2106
X5.56Y-2.2106
X4.7291Y-3.163
X4.7291Y-3.263
X4.7291Y-3.363
X4.7291Y-3.463
X4.7291Y-3.563
X5.8921Y-3.163
X5.8921Y-3.263
X5.8921Y-3.363
X5.8921Y-3.463
T3
G00X5.2207Y-4.0028
M15
G01X5.2207Y-3.987
M16
G05
G00X5.4112Y-4.0028
M15
G01X5.4112Y-3.987
M16
G05
T4
G00X5.2085Y-4.1228
M15
G01X5.2085Y-4.1031
M16
G05
G00X5.4234Y-4.1228
M15
G01X5.4234Y-4.1031
M16
G05
T0
M30
