G04 #@! TF.GenerationSoftware,KiCad,Pcbnew,(5.1.6)-1*
G04 #@! TF.CreationDate,2020-07-08T21:30:57-04:00*
G04 #@! TF.ProjectId,co2buddy,636f3262-7564-4647-992e-6b696361645f,rev?*
G04 #@! TF.SameCoordinates,Original*
G04 #@! TF.FileFunction,Soldermask,Top*
G04 #@! TF.FilePolarity,Negative*
%FSLAX46Y46*%
G04 Gerber Fmt 4.6, Leading zero omitted, Abs format (unit mm)*
G04 Created by KiCad (PCBNEW (5.1.6)-1) date 2020-07-08 21:30:57*
%MOMM*%
%LPD*%
G01*
G04 APERTURE LIST*
%ADD10C,0.100000*%
G04 APERTURE END LIST*
D10*
G36*
X136750800Y-106040800D02*
G01*
X135219200Y-106040800D01*
X135219200Y-103439200D01*
X136750800Y-103439200D01*
X136750800Y-106040800D01*
G37*
G36*
X134830800Y-106040800D02*
G01*
X133299200Y-106040800D01*
X133299200Y-103439200D01*
X134830800Y-103439200D01*
X134830800Y-106040800D01*
G37*
G36*
X137468409Y-100668599D02*
G01*
X137480649Y-100669200D01*
X138975800Y-100669200D01*
X138975800Y-102264201D01*
X138978202Y-102288587D01*
X138985315Y-102312036D01*
X138988300Y-102317621D01*
X138988300Y-103190800D01*
X138625799Y-103190800D01*
X138601413Y-103193202D01*
X138577964Y-103200315D01*
X138556353Y-103211866D01*
X138537411Y-103227411D01*
X138521866Y-103246353D01*
X138510315Y-103267964D01*
X138503202Y-103291413D01*
X138500800Y-103315799D01*
X138500800Y-104644171D01*
X138499009Y-104646353D01*
X138487458Y-104667964D01*
X138478545Y-104703547D01*
X138470298Y-104787279D01*
X138459293Y-104823559D01*
X138428796Y-104924095D01*
X138428794Y-104924098D01*
X138361401Y-105050183D01*
X138270701Y-105160701D01*
X138160183Y-105251401D01*
X138034095Y-105318796D01*
X137897283Y-105360298D01*
X137755000Y-105374311D01*
X137612718Y-105360298D01*
X137475906Y-105318796D01*
X137349818Y-105251401D01*
X137239300Y-105160701D01*
X137148599Y-105050182D01*
X137081204Y-104924095D01*
X137039702Y-104787283D01*
X137029200Y-104680650D01*
X137029200Y-104259351D01*
X137039702Y-104152718D01*
X137043817Y-104139154D01*
X137048598Y-104115120D01*
X137049200Y-104102868D01*
X137049200Y-102395799D01*
X137046798Y-102371413D01*
X137039685Y-102347964D01*
X137028134Y-102326353D01*
X137012589Y-102307411D01*
X136993647Y-102291866D01*
X136972036Y-102280315D01*
X136948587Y-102273202D01*
X136924201Y-102270800D01*
X136874200Y-102270800D01*
X136874200Y-101876557D01*
X136871798Y-101852171D01*
X136868823Y-101840293D01*
X136852893Y-101787777D01*
X136844200Y-101699515D01*
X136844200Y-101240486D01*
X136852893Y-101152224D01*
X136868820Y-101099718D01*
X136873598Y-101075696D01*
X136874200Y-101063444D01*
X136874200Y-100669200D01*
X137409351Y-100669200D01*
X137421591Y-100668599D01*
X137445000Y-100666293D01*
X137468409Y-100668599D01*
G37*
G36*
X132722776Y-100677893D02*
G01*
X132742311Y-100683819D01*
X132778591Y-100689200D01*
X133276559Y-100689200D01*
X133281353Y-100693134D01*
X133302964Y-100704685D01*
X133326413Y-100711798D01*
X133350799Y-100714200D01*
X136575800Y-100714200D01*
X136575800Y-102465800D01*
X133474200Y-102465800D01*
X133474200Y-102415799D01*
X133471798Y-102391413D01*
X133464685Y-102367964D01*
X133453134Y-102346353D01*
X133437589Y-102327411D01*
X133418647Y-102311866D01*
X133397036Y-102300315D01*
X133373587Y-102293202D01*
X133349201Y-102290800D01*
X133163299Y-102290800D01*
X133138913Y-102293202D01*
X133115464Y-102300315D01*
X133093853Y-102311866D01*
X133074911Y-102327411D01*
X133059366Y-102346353D01*
X133047815Y-102367964D01*
X133040702Y-102391413D01*
X133038300Y-102415799D01*
X133038300Y-103253025D01*
X133030315Y-103267964D01*
X133023202Y-103291413D01*
X133020800Y-103315799D01*
X133020800Y-104694544D01*
X133018545Y-104703547D01*
X133010298Y-104787279D01*
X132999293Y-104823559D01*
X132968796Y-104924095D01*
X132968794Y-104924098D01*
X132901401Y-105050183D01*
X132810701Y-105160701D01*
X132700183Y-105251401D01*
X132574095Y-105318796D01*
X132437283Y-105360298D01*
X132295000Y-105374311D01*
X132152718Y-105360298D01*
X132015906Y-105318796D01*
X131889818Y-105251401D01*
X131779300Y-105160701D01*
X131688599Y-105050182D01*
X131621204Y-104924095D01*
X131579702Y-104787283D01*
X131571455Y-104703547D01*
X131569200Y-104692209D01*
X131569200Y-103315799D01*
X131566798Y-103291413D01*
X131559685Y-103267964D01*
X131548134Y-103246353D01*
X131532589Y-103227411D01*
X131513647Y-103211866D01*
X131492036Y-103200315D01*
X131468587Y-103193202D01*
X131444201Y-103190800D01*
X131111700Y-103190800D01*
X131111700Y-102317621D01*
X131114685Y-102312036D01*
X131121798Y-102288587D01*
X131124200Y-102264201D01*
X131124200Y-100689200D01*
X132431408Y-100689200D01*
X132467688Y-100683819D01*
X132487223Y-100677893D01*
X132605000Y-100666293D01*
X132722776Y-100677893D01*
G37*
G36*
X120266732Y-89610739D02*
G01*
X120382754Y-89633817D01*
X120546689Y-89701721D01*
X120694227Y-89800303D01*
X120819697Y-89925773D01*
X120918279Y-90073311D01*
X120986183Y-90237246D01*
X121020800Y-90411279D01*
X121020800Y-90588721D01*
X120986183Y-90762754D01*
X120918279Y-90926689D01*
X120819697Y-91074227D01*
X120694227Y-91199697D01*
X120546689Y-91298279D01*
X120382754Y-91366183D01*
X120266732Y-91389261D01*
X120208722Y-91400800D01*
X120031278Y-91400800D01*
X119973268Y-91389261D01*
X119857246Y-91366183D01*
X119693311Y-91298279D01*
X119545773Y-91199697D01*
X119420303Y-91074227D01*
X119321721Y-90926689D01*
X119253817Y-90762754D01*
X119219200Y-90588721D01*
X119219200Y-90411279D01*
X119253817Y-90237246D01*
X119321721Y-90073311D01*
X119420303Y-89925773D01*
X119545773Y-89800303D01*
X119693311Y-89701721D01*
X119857246Y-89633817D01*
X119973268Y-89610739D01*
X120031278Y-89599200D01*
X120208722Y-89599200D01*
X120266732Y-89610739D01*
G37*
G36*
X120266732Y-87070739D02*
G01*
X120382754Y-87093817D01*
X120546689Y-87161721D01*
X120694227Y-87260303D01*
X120819697Y-87385773D01*
X120918279Y-87533311D01*
X120986183Y-87697246D01*
X121020800Y-87871279D01*
X121020800Y-88048721D01*
X120986183Y-88222754D01*
X120918279Y-88386689D01*
X120819697Y-88534227D01*
X120694227Y-88659697D01*
X120546689Y-88758279D01*
X120382754Y-88826183D01*
X120266732Y-88849261D01*
X120208722Y-88860800D01*
X120031278Y-88860800D01*
X119973268Y-88849261D01*
X119857246Y-88826183D01*
X119693311Y-88758279D01*
X119545773Y-88659697D01*
X119420303Y-88534227D01*
X119321721Y-88386689D01*
X119253817Y-88222754D01*
X119219200Y-88048721D01*
X119219200Y-87871279D01*
X119253817Y-87697246D01*
X119321721Y-87533311D01*
X119420303Y-87385773D01*
X119545773Y-87260303D01*
X119693311Y-87161721D01*
X119857246Y-87093817D01*
X119973268Y-87070739D01*
X120031278Y-87059200D01*
X120208722Y-87059200D01*
X120266732Y-87070739D01*
G37*
G36*
X149806732Y-87070739D02*
G01*
X149922754Y-87093817D01*
X150086689Y-87161721D01*
X150234227Y-87260303D01*
X150359697Y-87385773D01*
X150458279Y-87533311D01*
X150526183Y-87697246D01*
X150560800Y-87871279D01*
X150560800Y-88048721D01*
X150526183Y-88222754D01*
X150458279Y-88386689D01*
X150359697Y-88534227D01*
X150234227Y-88659697D01*
X150086689Y-88758279D01*
X149922754Y-88826183D01*
X149806732Y-88849261D01*
X149748722Y-88860800D01*
X149571278Y-88860800D01*
X149513268Y-88849261D01*
X149397246Y-88826183D01*
X149233311Y-88758279D01*
X149085773Y-88659697D01*
X148960303Y-88534227D01*
X148861721Y-88386689D01*
X148793817Y-88222754D01*
X148759200Y-88048721D01*
X148759200Y-87871279D01*
X148793817Y-87697246D01*
X148861721Y-87533311D01*
X148960303Y-87385773D01*
X149085773Y-87260303D01*
X149233311Y-87161721D01*
X149397246Y-87093817D01*
X149513268Y-87070739D01*
X149571278Y-87059200D01*
X149748722Y-87059200D01*
X149806732Y-87070739D01*
G37*
G36*
X120266732Y-84530739D02*
G01*
X120382754Y-84553817D01*
X120546689Y-84621721D01*
X120694227Y-84720303D01*
X120819697Y-84845773D01*
X120918279Y-84993311D01*
X120986183Y-85157246D01*
X121020800Y-85331279D01*
X121020800Y-85508721D01*
X120986183Y-85682754D01*
X120918279Y-85846689D01*
X120819697Y-85994227D01*
X120694227Y-86119697D01*
X120546689Y-86218279D01*
X120382754Y-86286183D01*
X120266732Y-86309261D01*
X120208722Y-86320800D01*
X120031278Y-86320800D01*
X119973268Y-86309261D01*
X119857246Y-86286183D01*
X119693311Y-86218279D01*
X119545773Y-86119697D01*
X119420303Y-85994227D01*
X119321721Y-85846689D01*
X119253817Y-85682754D01*
X119219200Y-85508721D01*
X119219200Y-85331279D01*
X119253817Y-85157246D01*
X119321721Y-84993311D01*
X119420303Y-84845773D01*
X119545773Y-84720303D01*
X119693311Y-84621721D01*
X119857246Y-84553817D01*
X119973268Y-84530739D01*
X120031278Y-84519200D01*
X120208722Y-84519200D01*
X120266732Y-84530739D01*
G37*
G36*
X149806732Y-84530739D02*
G01*
X149922754Y-84553817D01*
X150086689Y-84621721D01*
X150234227Y-84720303D01*
X150359697Y-84845773D01*
X150458279Y-84993311D01*
X150526183Y-85157246D01*
X150560800Y-85331279D01*
X150560800Y-85508721D01*
X150526183Y-85682754D01*
X150458279Y-85846689D01*
X150359697Y-85994227D01*
X150234227Y-86119697D01*
X150086689Y-86218279D01*
X149922754Y-86286183D01*
X149806732Y-86309261D01*
X149748722Y-86320800D01*
X149571278Y-86320800D01*
X149513268Y-86309261D01*
X149397246Y-86286183D01*
X149233311Y-86218279D01*
X149085773Y-86119697D01*
X148960303Y-85994227D01*
X148861721Y-85846689D01*
X148793817Y-85682754D01*
X148759200Y-85508721D01*
X148759200Y-85331279D01*
X148793817Y-85157246D01*
X148861721Y-84993311D01*
X148960303Y-84845773D01*
X149085773Y-84720303D01*
X149233311Y-84621721D01*
X149397246Y-84553817D01*
X149513268Y-84530739D01*
X149571278Y-84519200D01*
X149748722Y-84519200D01*
X149806732Y-84530739D01*
G37*
G36*
X120266732Y-81990739D02*
G01*
X120382754Y-82013817D01*
X120546689Y-82081721D01*
X120694227Y-82180303D01*
X120819697Y-82305773D01*
X120918279Y-82453311D01*
X120986183Y-82617246D01*
X121020800Y-82791279D01*
X121020800Y-82968721D01*
X120986183Y-83142754D01*
X120918279Y-83306689D01*
X120819697Y-83454227D01*
X120694227Y-83579697D01*
X120546689Y-83678279D01*
X120382754Y-83746183D01*
X120266732Y-83769261D01*
X120208722Y-83780800D01*
X120031278Y-83780800D01*
X119973268Y-83769261D01*
X119857246Y-83746183D01*
X119693311Y-83678279D01*
X119545773Y-83579697D01*
X119420303Y-83454227D01*
X119321721Y-83306689D01*
X119253817Y-83142754D01*
X119219200Y-82968721D01*
X119219200Y-82791279D01*
X119253817Y-82617246D01*
X119321721Y-82453311D01*
X119420303Y-82305773D01*
X119545773Y-82180303D01*
X119693311Y-82081721D01*
X119857246Y-82013817D01*
X119973268Y-81990739D01*
X120031278Y-81979200D01*
X120208722Y-81979200D01*
X120266732Y-81990739D01*
G37*
G36*
X149806732Y-81990739D02*
G01*
X149922754Y-82013817D01*
X150086689Y-82081721D01*
X150234227Y-82180303D01*
X150359697Y-82305773D01*
X150458279Y-82453311D01*
X150526183Y-82617246D01*
X150560800Y-82791279D01*
X150560800Y-82968721D01*
X150526183Y-83142754D01*
X150458279Y-83306689D01*
X150359697Y-83454227D01*
X150234227Y-83579697D01*
X150086689Y-83678279D01*
X149922754Y-83746183D01*
X149806732Y-83769261D01*
X149748722Y-83780800D01*
X149571278Y-83780800D01*
X149513268Y-83769261D01*
X149397246Y-83746183D01*
X149233311Y-83678279D01*
X149085773Y-83579697D01*
X148960303Y-83454227D01*
X148861721Y-83306689D01*
X148793817Y-83142754D01*
X148759200Y-82968721D01*
X148759200Y-82791279D01*
X148793817Y-82617246D01*
X148861721Y-82453311D01*
X148960303Y-82305773D01*
X149085773Y-82180303D01*
X149233311Y-82081721D01*
X149397246Y-82013817D01*
X149513268Y-81990739D01*
X149571278Y-81979200D01*
X149748722Y-81979200D01*
X149806732Y-81990739D01*
G37*
G36*
X149806732Y-79450739D02*
G01*
X149922754Y-79473817D01*
X150086689Y-79541721D01*
X150234227Y-79640303D01*
X150359697Y-79765773D01*
X150458279Y-79913311D01*
X150526183Y-80077246D01*
X150560800Y-80251279D01*
X150560800Y-80428721D01*
X150526183Y-80602754D01*
X150458279Y-80766689D01*
X150359697Y-80914227D01*
X150234227Y-81039697D01*
X150086689Y-81138279D01*
X149922754Y-81206183D01*
X149806732Y-81229261D01*
X149748722Y-81240800D01*
X149571278Y-81240800D01*
X149513268Y-81229261D01*
X149397246Y-81206183D01*
X149233311Y-81138279D01*
X149085773Y-81039697D01*
X148960303Y-80914227D01*
X148861721Y-80766689D01*
X148793817Y-80602754D01*
X148759200Y-80428721D01*
X148759200Y-80251279D01*
X148793817Y-80077246D01*
X148861721Y-79913311D01*
X148960303Y-79765773D01*
X149085773Y-79640303D01*
X149233311Y-79541721D01*
X149397246Y-79473817D01*
X149513268Y-79450739D01*
X149571278Y-79439200D01*
X149748722Y-79439200D01*
X149806732Y-79450739D01*
G37*
G36*
X120266732Y-79450739D02*
G01*
X120382754Y-79473817D01*
X120546689Y-79541721D01*
X120694227Y-79640303D01*
X120819697Y-79765773D01*
X120918279Y-79913311D01*
X120986183Y-80077246D01*
X121020800Y-80251279D01*
X121020800Y-80428721D01*
X120986183Y-80602754D01*
X120918279Y-80766689D01*
X120819697Y-80914227D01*
X120694227Y-81039697D01*
X120546689Y-81138279D01*
X120382754Y-81206183D01*
X120266732Y-81229261D01*
X120208722Y-81240800D01*
X120031278Y-81240800D01*
X119973268Y-81229261D01*
X119857246Y-81206183D01*
X119693311Y-81138279D01*
X119545773Y-81039697D01*
X119420303Y-80914227D01*
X119321721Y-80766689D01*
X119253817Y-80602754D01*
X119219200Y-80428721D01*
X119219200Y-80251279D01*
X119253817Y-80077246D01*
X119321721Y-79913311D01*
X119420303Y-79765773D01*
X119545773Y-79640303D01*
X119693311Y-79541721D01*
X119857246Y-79473817D01*
X119973268Y-79450739D01*
X120031278Y-79439200D01*
X120208722Y-79439200D01*
X120266732Y-79450739D01*
G37*
G36*
X131543465Y-63128546D02*
G01*
X131579996Y-63139628D01*
X131613660Y-63157621D01*
X131643165Y-63181835D01*
X131667379Y-63211340D01*
X131685372Y-63245004D01*
X131696454Y-63281535D01*
X131700800Y-63325660D01*
X131700800Y-64274340D01*
X131696454Y-64318465D01*
X131685372Y-64354996D01*
X131667379Y-64388660D01*
X131643165Y-64418165D01*
X131613660Y-64442379D01*
X131579996Y-64460372D01*
X131543465Y-64471454D01*
X131499340Y-64475800D01*
X130050660Y-64475800D01*
X130006535Y-64471454D01*
X129970004Y-64460372D01*
X129936340Y-64442379D01*
X129906835Y-64418165D01*
X129882621Y-64388660D01*
X129864628Y-64354996D01*
X129853546Y-64318465D01*
X129849200Y-64274340D01*
X129849200Y-63325660D01*
X129853546Y-63281535D01*
X129864628Y-63245004D01*
X129882621Y-63211340D01*
X129906835Y-63181835D01*
X129936340Y-63157621D01*
X129970004Y-63139628D01*
X130006535Y-63128546D01*
X130050660Y-63124200D01*
X131499340Y-63124200D01*
X131543465Y-63128546D01*
G37*
G36*
X139543465Y-63128546D02*
G01*
X139579996Y-63139628D01*
X139613660Y-63157621D01*
X139643165Y-63181835D01*
X139667379Y-63211340D01*
X139685372Y-63245004D01*
X139696454Y-63281535D01*
X139700800Y-63325660D01*
X139700800Y-64274340D01*
X139696454Y-64318465D01*
X139685372Y-64354996D01*
X139667379Y-64388660D01*
X139643165Y-64418165D01*
X139613660Y-64442379D01*
X139579996Y-64460372D01*
X139543465Y-64471454D01*
X139499340Y-64475800D01*
X138050660Y-64475800D01*
X138006535Y-64471454D01*
X137970004Y-64460372D01*
X137936340Y-64442379D01*
X137906835Y-64418165D01*
X137882621Y-64388660D01*
X137864628Y-64354996D01*
X137853546Y-64318465D01*
X137849200Y-64274340D01*
X137849200Y-63325660D01*
X137853546Y-63281535D01*
X137864628Y-63245004D01*
X137882621Y-63211340D01*
X137906835Y-63181835D01*
X137936340Y-63157621D01*
X137970004Y-63139628D01*
X138006535Y-63128546D01*
X138050660Y-63124200D01*
X139499340Y-63124200D01*
X139543465Y-63128546D01*
G37*
G36*
X136100800Y-63670800D02*
G01*
X133449200Y-63670800D01*
X133449200Y-62509200D01*
X136100800Y-62509200D01*
X136100800Y-63670800D01*
G37*
G36*
X131543465Y-60328546D02*
G01*
X131579996Y-60339628D01*
X131613660Y-60357621D01*
X131643165Y-60381835D01*
X131667379Y-60411340D01*
X131685372Y-60445004D01*
X131696454Y-60481535D01*
X131700800Y-60525660D01*
X131700800Y-61474340D01*
X131696454Y-61518465D01*
X131685372Y-61554996D01*
X131667379Y-61588660D01*
X131643165Y-61618165D01*
X131613660Y-61642379D01*
X131579996Y-61660372D01*
X131543465Y-61671454D01*
X131499340Y-61675800D01*
X130050660Y-61675800D01*
X130006535Y-61671454D01*
X129970004Y-61660372D01*
X129936340Y-61642379D01*
X129906835Y-61618165D01*
X129882621Y-61588660D01*
X129864628Y-61554996D01*
X129853546Y-61518465D01*
X129849200Y-61474340D01*
X129849200Y-60525660D01*
X129853546Y-60481535D01*
X129864628Y-60445004D01*
X129882621Y-60411340D01*
X129906835Y-60381835D01*
X129936340Y-60357621D01*
X129970004Y-60339628D01*
X130006535Y-60328546D01*
X130050660Y-60324200D01*
X131499340Y-60324200D01*
X131543465Y-60328546D01*
G37*
G36*
X139543465Y-60328546D02*
G01*
X139579996Y-60339628D01*
X139613660Y-60357621D01*
X139643165Y-60381835D01*
X139667379Y-60411340D01*
X139685372Y-60445004D01*
X139696454Y-60481535D01*
X139700800Y-60525660D01*
X139700800Y-61474340D01*
X139696454Y-61518465D01*
X139685372Y-61554996D01*
X139667379Y-61588660D01*
X139643165Y-61618165D01*
X139613660Y-61642379D01*
X139579996Y-61660372D01*
X139543465Y-61671454D01*
X139499340Y-61675800D01*
X138050660Y-61675800D01*
X138006535Y-61671454D01*
X137970004Y-61660372D01*
X137936340Y-61642379D01*
X137906835Y-61618165D01*
X137882621Y-61588660D01*
X137864628Y-61554996D01*
X137853546Y-61518465D01*
X137849200Y-61474340D01*
X137849200Y-60525660D01*
X137853546Y-60481535D01*
X137864628Y-60445004D01*
X137882621Y-60411340D01*
X137906835Y-60381835D01*
X137936340Y-60357621D01*
X137970004Y-60339628D01*
X138006535Y-60328546D01*
X138050660Y-60324200D01*
X139499340Y-60324200D01*
X139543465Y-60328546D01*
G37*
G36*
X136100800Y-61470800D02*
G01*
X135349200Y-61470800D01*
X135349200Y-60309200D01*
X136100800Y-60309200D01*
X136100800Y-61470800D01*
G37*
G36*
X134200800Y-61470800D02*
G01*
X133449200Y-61470800D01*
X133449200Y-60309200D01*
X134200800Y-60309200D01*
X134200800Y-61470800D01*
G37*
G36*
X120493900Y-54270346D02*
G01*
X120706521Y-54312639D01*
X121006947Y-54437080D01*
X121277324Y-54617740D01*
X121507260Y-54847676D01*
X121687920Y-55118053D01*
X121812361Y-55418479D01*
X121875800Y-55737410D01*
X121875800Y-56062590D01*
X121812361Y-56381521D01*
X121687920Y-56681947D01*
X121507260Y-56952324D01*
X121277324Y-57182260D01*
X121006947Y-57362920D01*
X120706521Y-57487361D01*
X120493900Y-57529654D01*
X120387591Y-57550800D01*
X120062409Y-57550800D01*
X119956100Y-57529654D01*
X119743479Y-57487361D01*
X119443053Y-57362920D01*
X119172676Y-57182260D01*
X118942740Y-56952324D01*
X118762080Y-56681947D01*
X118637639Y-56381521D01*
X118574200Y-56062590D01*
X118574200Y-55737410D01*
X118637639Y-55418479D01*
X118762080Y-55118053D01*
X118942740Y-54847676D01*
X119172676Y-54617740D01*
X119443053Y-54437080D01*
X119743479Y-54312639D01*
X119956100Y-54270346D01*
X120062409Y-54249200D01*
X120387591Y-54249200D01*
X120493900Y-54270346D01*
G37*
G36*
X150293900Y-54270346D02*
G01*
X150506521Y-54312639D01*
X150806947Y-54437080D01*
X151077324Y-54617740D01*
X151307260Y-54847676D01*
X151487920Y-55118053D01*
X151612361Y-55418479D01*
X151675800Y-55737410D01*
X151675800Y-56062590D01*
X151612361Y-56381521D01*
X151487920Y-56681947D01*
X151307260Y-56952324D01*
X151077324Y-57182260D01*
X150806947Y-57362920D01*
X150506521Y-57487361D01*
X150293900Y-57529654D01*
X150187591Y-57550800D01*
X149862409Y-57550800D01*
X149756100Y-57529654D01*
X149543479Y-57487361D01*
X149243053Y-57362920D01*
X148972676Y-57182260D01*
X148742740Y-56952324D01*
X148562080Y-56681947D01*
X148437639Y-56381521D01*
X148374200Y-56062590D01*
X148374200Y-55737410D01*
X148437639Y-55418479D01*
X148562080Y-55118053D01*
X148742740Y-54847676D01*
X148972676Y-54617740D01*
X149243053Y-54437080D01*
X149543479Y-54312639D01*
X149756100Y-54270346D01*
X149862409Y-54249200D01*
X150187591Y-54249200D01*
X150293900Y-54270346D01*
G37*
G36*
X141371732Y-55260739D02*
G01*
X141487754Y-55283817D01*
X141651689Y-55351721D01*
X141799227Y-55450303D01*
X141924697Y-55575773D01*
X142023279Y-55723311D01*
X142091183Y-55887246D01*
X142125800Y-56061279D01*
X142125800Y-56238721D01*
X142091183Y-56412754D01*
X142023279Y-56576689D01*
X141924697Y-56724227D01*
X141799227Y-56849697D01*
X141651689Y-56948279D01*
X141487754Y-57016183D01*
X141371732Y-57039261D01*
X141313722Y-57050800D01*
X141136278Y-57050800D01*
X141078268Y-57039261D01*
X140962246Y-57016183D01*
X140798311Y-56948279D01*
X140650773Y-56849697D01*
X140525303Y-56724227D01*
X140426721Y-56576689D01*
X140358817Y-56412754D01*
X140324200Y-56238721D01*
X140324200Y-56061279D01*
X140358817Y-55887246D01*
X140426721Y-55723311D01*
X140525303Y-55575773D01*
X140650773Y-55450303D01*
X140798311Y-55351721D01*
X140962246Y-55283817D01*
X141078268Y-55260739D01*
X141136278Y-55249200D01*
X141313722Y-55249200D01*
X141371732Y-55260739D01*
G37*
G36*
X138831732Y-55260739D02*
G01*
X138947754Y-55283817D01*
X139111689Y-55351721D01*
X139259227Y-55450303D01*
X139384697Y-55575773D01*
X139483279Y-55723311D01*
X139551183Y-55887246D01*
X139585800Y-56061279D01*
X139585800Y-56238721D01*
X139551183Y-56412754D01*
X139483279Y-56576689D01*
X139384697Y-56724227D01*
X139259227Y-56849697D01*
X139111689Y-56948279D01*
X138947754Y-57016183D01*
X138831732Y-57039261D01*
X138773722Y-57050800D01*
X138596278Y-57050800D01*
X138538268Y-57039261D01*
X138422246Y-57016183D01*
X138258311Y-56948279D01*
X138110773Y-56849697D01*
X137985303Y-56724227D01*
X137886721Y-56576689D01*
X137818817Y-56412754D01*
X137784200Y-56238721D01*
X137784200Y-56061279D01*
X137818817Y-55887246D01*
X137886721Y-55723311D01*
X137985303Y-55575773D01*
X138110773Y-55450303D01*
X138258311Y-55351721D01*
X138422246Y-55283817D01*
X138538268Y-55260739D01*
X138596278Y-55249200D01*
X138773722Y-55249200D01*
X138831732Y-55260739D01*
G37*
G36*
X133751732Y-55260739D02*
G01*
X133867754Y-55283817D01*
X134031689Y-55351721D01*
X134179227Y-55450303D01*
X134304697Y-55575773D01*
X134403279Y-55723311D01*
X134471183Y-55887246D01*
X134505800Y-56061279D01*
X134505800Y-56238721D01*
X134471183Y-56412754D01*
X134403279Y-56576689D01*
X134304697Y-56724227D01*
X134179227Y-56849697D01*
X134031689Y-56948279D01*
X133867754Y-57016183D01*
X133751732Y-57039261D01*
X133693722Y-57050800D01*
X133516278Y-57050800D01*
X133458268Y-57039261D01*
X133342246Y-57016183D01*
X133178311Y-56948279D01*
X133030773Y-56849697D01*
X132905303Y-56724227D01*
X132806721Y-56576689D01*
X132738817Y-56412754D01*
X132704200Y-56238721D01*
X132704200Y-56061279D01*
X132738817Y-55887246D01*
X132806721Y-55723311D01*
X132905303Y-55575773D01*
X133030773Y-55450303D01*
X133178311Y-55351721D01*
X133342246Y-55283817D01*
X133458268Y-55260739D01*
X133516278Y-55249200D01*
X133693722Y-55249200D01*
X133751732Y-55260739D01*
G37*
G36*
X131211732Y-55260739D02*
G01*
X131327754Y-55283817D01*
X131491689Y-55351721D01*
X131639227Y-55450303D01*
X131764697Y-55575773D01*
X131863279Y-55723311D01*
X131931183Y-55887246D01*
X131965800Y-56061279D01*
X131965800Y-56238721D01*
X131931183Y-56412754D01*
X131863279Y-56576689D01*
X131764697Y-56724227D01*
X131639227Y-56849697D01*
X131491689Y-56948279D01*
X131327754Y-57016183D01*
X131211732Y-57039261D01*
X131153722Y-57050800D01*
X130976278Y-57050800D01*
X130918268Y-57039261D01*
X130802246Y-57016183D01*
X130638311Y-56948279D01*
X130490773Y-56849697D01*
X130365303Y-56724227D01*
X130266721Y-56576689D01*
X130198817Y-56412754D01*
X130164200Y-56238721D01*
X130164200Y-56061279D01*
X130198817Y-55887246D01*
X130266721Y-55723311D01*
X130365303Y-55575773D01*
X130490773Y-55450303D01*
X130638311Y-55351721D01*
X130802246Y-55283817D01*
X130918268Y-55260739D01*
X130976278Y-55249200D01*
X131153722Y-55249200D01*
X131211732Y-55260739D01*
G37*
G36*
X129425800Y-57050800D02*
G01*
X127624200Y-57050800D01*
X127624200Y-55249200D01*
X129425800Y-55249200D01*
X129425800Y-57050800D01*
G37*
G36*
X136291732Y-55260739D02*
G01*
X136407754Y-55283817D01*
X136571689Y-55351721D01*
X136719227Y-55450303D01*
X136844697Y-55575773D01*
X136943279Y-55723311D01*
X137011183Y-55887246D01*
X137045800Y-56061279D01*
X137045800Y-56238721D01*
X137011183Y-56412754D01*
X136943279Y-56576689D01*
X136844697Y-56724227D01*
X136719227Y-56849697D01*
X136571689Y-56948279D01*
X136407754Y-57016183D01*
X136291732Y-57039261D01*
X136233722Y-57050800D01*
X136056278Y-57050800D01*
X135998268Y-57039261D01*
X135882246Y-57016183D01*
X135718311Y-56948279D01*
X135570773Y-56849697D01*
X135445303Y-56724227D01*
X135346721Y-56576689D01*
X135278817Y-56412754D01*
X135244200Y-56238721D01*
X135244200Y-56061279D01*
X135278817Y-55887246D01*
X135346721Y-55723311D01*
X135445303Y-55575773D01*
X135570773Y-55450303D01*
X135718311Y-55351721D01*
X135882246Y-55283817D01*
X135998268Y-55260739D01*
X136056278Y-55249200D01*
X136233722Y-55249200D01*
X136291732Y-55260739D01*
G37*
G36*
X141240800Y-51565800D02*
G01*
X140239200Y-51565800D01*
X140239200Y-49464200D01*
X141240800Y-49464200D01*
X141240800Y-51565800D01*
G37*
G36*
X138700800Y-51565800D02*
G01*
X137699200Y-51565800D01*
X137699200Y-49464200D01*
X138700800Y-49464200D01*
X138700800Y-51565800D01*
G37*
G36*
X137430800Y-51565800D02*
G01*
X136429200Y-51565800D01*
X136429200Y-49464200D01*
X137430800Y-49464200D01*
X137430800Y-51565800D01*
G37*
G36*
X136160800Y-51565800D02*
G01*
X135159200Y-51565800D01*
X135159200Y-49464200D01*
X136160800Y-49464200D01*
X136160800Y-51565800D01*
G37*
G36*
X134890800Y-51565800D02*
G01*
X133889200Y-51565800D01*
X133889200Y-49464200D01*
X134890800Y-49464200D01*
X134890800Y-51565800D01*
G37*
G36*
X132350800Y-51565800D02*
G01*
X131349200Y-51565800D01*
X131349200Y-49464200D01*
X132350800Y-49464200D01*
X132350800Y-51565800D01*
G37*
G36*
X133620800Y-51565800D02*
G01*
X132619200Y-51565800D01*
X132619200Y-49464200D01*
X133620800Y-49464200D01*
X133620800Y-51565800D01*
G37*
G36*
X139970800Y-51565800D02*
G01*
X138969200Y-51565800D01*
X138969200Y-49464200D01*
X139970800Y-49464200D01*
X139970800Y-51565800D01*
G37*
G36*
X129810800Y-51565800D02*
G01*
X128809200Y-51565800D01*
X128809200Y-49464200D01*
X129810800Y-49464200D01*
X129810800Y-51565800D01*
G37*
G36*
X131080800Y-51565800D02*
G01*
X130079200Y-51565800D01*
X130079200Y-49464200D01*
X131080800Y-49464200D01*
X131080800Y-51565800D01*
G37*
G36*
X144575800Y-50015800D02*
G01*
X142474200Y-50015800D01*
X142474200Y-49014200D01*
X144575800Y-49014200D01*
X144575800Y-50015800D01*
G37*
G36*
X127575800Y-50015800D02*
G01*
X125474200Y-50015800D01*
X125474200Y-49014200D01*
X127575800Y-49014200D01*
X127575800Y-50015800D01*
G37*
G36*
X144575800Y-48745800D02*
G01*
X142474200Y-48745800D01*
X142474200Y-47744200D01*
X144575800Y-47744200D01*
X144575800Y-48745800D01*
G37*
G36*
X127575800Y-48745800D02*
G01*
X125474200Y-48745800D01*
X125474200Y-47744200D01*
X127575800Y-47744200D01*
X127575800Y-48745800D01*
G37*
G36*
X144575800Y-47475800D02*
G01*
X142474200Y-47475800D01*
X142474200Y-46474200D01*
X144575800Y-46474200D01*
X144575800Y-47475800D01*
G37*
G36*
X127575800Y-47475800D02*
G01*
X125474200Y-47475800D01*
X125474200Y-46474200D01*
X127575800Y-46474200D01*
X127575800Y-47475800D01*
G37*
G36*
X144575800Y-46205800D02*
G01*
X142474200Y-46205800D01*
X142474200Y-45204200D01*
X144575800Y-45204200D01*
X144575800Y-46205800D01*
G37*
G36*
X127575800Y-46205800D02*
G01*
X125474200Y-46205800D01*
X125474200Y-45204200D01*
X127575800Y-45204200D01*
X127575800Y-46205800D01*
G37*
G36*
X144575800Y-44935800D02*
G01*
X142474200Y-44935800D01*
X142474200Y-43934200D01*
X144575800Y-43934200D01*
X144575800Y-44935800D01*
G37*
G36*
X127575800Y-44935800D02*
G01*
X125474200Y-44935800D01*
X125474200Y-43934200D01*
X127575800Y-43934200D01*
X127575800Y-44935800D01*
G37*
G36*
X123293465Y-42878546D02*
G01*
X123329996Y-42889628D01*
X123363660Y-42907621D01*
X123393165Y-42931835D01*
X123417379Y-42961340D01*
X123435372Y-42995004D01*
X123446454Y-43031535D01*
X123450800Y-43075660D01*
X123450800Y-44024340D01*
X123446454Y-44068465D01*
X123435372Y-44104996D01*
X123417379Y-44138660D01*
X123393165Y-44168165D01*
X123363660Y-44192379D01*
X123329996Y-44210372D01*
X123293465Y-44221454D01*
X123249340Y-44225800D01*
X121800660Y-44225800D01*
X121756535Y-44221454D01*
X121720004Y-44210372D01*
X121686340Y-44192379D01*
X121656835Y-44168165D01*
X121632621Y-44138660D01*
X121614628Y-44104996D01*
X121603546Y-44068465D01*
X121599200Y-44024340D01*
X121599200Y-43075660D01*
X121603546Y-43031535D01*
X121614628Y-42995004D01*
X121632621Y-42961340D01*
X121656835Y-42931835D01*
X121686340Y-42907621D01*
X121720004Y-42889628D01*
X121756535Y-42878546D01*
X121800660Y-42874200D01*
X123249340Y-42874200D01*
X123293465Y-42878546D01*
G37*
G36*
X127575800Y-43665800D02*
G01*
X125474200Y-43665800D01*
X125474200Y-42664200D01*
X127575800Y-42664200D01*
X127575800Y-43665800D01*
G37*
G36*
X144575800Y-43665800D02*
G01*
X142474200Y-43665800D01*
X142474200Y-42664200D01*
X144575800Y-42664200D01*
X144575800Y-43665800D01*
G37*
G36*
X136575800Y-43055800D02*
G01*
X131474200Y-43055800D01*
X131474200Y-37954200D01*
X136575800Y-37954200D01*
X136575800Y-43055800D01*
G37*
G36*
X144575800Y-42395800D02*
G01*
X142474200Y-42395800D01*
X142474200Y-41394200D01*
X144575800Y-41394200D01*
X144575800Y-42395800D01*
G37*
G36*
X127575800Y-42395800D02*
G01*
X125474200Y-42395800D01*
X125474200Y-41394200D01*
X127575800Y-41394200D01*
X127575800Y-42395800D01*
G37*
G36*
X123293465Y-40078546D02*
G01*
X123329996Y-40089628D01*
X123363660Y-40107621D01*
X123393165Y-40131835D01*
X123417379Y-40161340D01*
X123435372Y-40195004D01*
X123446454Y-40231535D01*
X123450800Y-40275660D01*
X123450800Y-41224340D01*
X123446454Y-41268465D01*
X123435372Y-41304996D01*
X123417379Y-41338660D01*
X123393165Y-41368165D01*
X123363660Y-41392379D01*
X123329996Y-41410372D01*
X123293465Y-41421454D01*
X123249340Y-41425800D01*
X121800660Y-41425800D01*
X121756535Y-41421454D01*
X121720004Y-41410372D01*
X121686340Y-41392379D01*
X121656835Y-41368165D01*
X121632621Y-41338660D01*
X121614628Y-41304996D01*
X121603546Y-41268465D01*
X121599200Y-41224340D01*
X121599200Y-40275660D01*
X121603546Y-40231535D01*
X121614628Y-40195004D01*
X121632621Y-40161340D01*
X121656835Y-40131835D01*
X121686340Y-40107621D01*
X121720004Y-40089628D01*
X121756535Y-40078546D01*
X121800660Y-40074200D01*
X123249340Y-40074200D01*
X123293465Y-40078546D01*
G37*
G36*
X127575800Y-41125800D02*
G01*
X125474200Y-41125800D01*
X125474200Y-40124200D01*
X127575800Y-40124200D01*
X127575800Y-41125800D01*
G37*
G36*
X144575800Y-41125800D02*
G01*
X142474200Y-41125800D01*
X142474200Y-40124200D01*
X144575800Y-40124200D01*
X144575800Y-41125800D01*
G37*
G36*
X144575800Y-39855800D02*
G01*
X142474200Y-39855800D01*
X142474200Y-38854200D01*
X144575800Y-38854200D01*
X144575800Y-39855800D01*
G37*
G36*
X127575800Y-39855800D02*
G01*
X125474200Y-39855800D01*
X125474200Y-38854200D01*
X127575800Y-38854200D01*
X127575800Y-39855800D01*
G37*
G36*
X144575800Y-38585800D02*
G01*
X142474200Y-38585800D01*
X142474200Y-37584200D01*
X144575800Y-37584200D01*
X144575800Y-38585800D01*
G37*
G36*
X127575800Y-38585800D02*
G01*
X125474200Y-38585800D01*
X125474200Y-37584200D01*
X127575800Y-37584200D01*
X127575800Y-38585800D01*
G37*
G36*
X127575800Y-37315800D02*
G01*
X125474200Y-37315800D01*
X125474200Y-36314200D01*
X127575800Y-36314200D01*
X127575800Y-37315800D01*
G37*
G36*
X144575800Y-37315800D02*
G01*
X142474200Y-37315800D01*
X142474200Y-36314200D01*
X144575800Y-36314200D01*
X144575800Y-37315800D01*
G37*
G36*
X123323465Y-35638546D02*
G01*
X123359996Y-35649628D01*
X123393660Y-35667621D01*
X123423165Y-35691835D01*
X123447379Y-35721340D01*
X123465372Y-35755004D01*
X123476454Y-35791535D01*
X123480800Y-35835660D01*
X123480800Y-36784340D01*
X123476454Y-36828465D01*
X123465372Y-36864996D01*
X123447379Y-36898660D01*
X123423165Y-36928165D01*
X123393660Y-36952379D01*
X123359996Y-36970372D01*
X123323465Y-36981454D01*
X123279340Y-36985800D01*
X121830660Y-36985800D01*
X121786535Y-36981454D01*
X121750004Y-36970372D01*
X121716340Y-36952379D01*
X121686835Y-36928165D01*
X121662621Y-36898660D01*
X121644628Y-36864996D01*
X121633546Y-36828465D01*
X121629200Y-36784340D01*
X121629200Y-35835660D01*
X121633546Y-35791535D01*
X121644628Y-35755004D01*
X121662621Y-35721340D01*
X121686835Y-35691835D01*
X121716340Y-35667621D01*
X121750004Y-35649628D01*
X121786535Y-35638546D01*
X121830660Y-35634200D01*
X123279340Y-35634200D01*
X123323465Y-35638546D01*
G37*
G36*
X127575800Y-36045800D02*
G01*
X125474200Y-36045800D01*
X125474200Y-35044200D01*
X127575800Y-35044200D01*
X127575800Y-36045800D01*
G37*
G36*
X144575800Y-36045800D02*
G01*
X142474200Y-36045800D01*
X142474200Y-35044200D01*
X144575800Y-35044200D01*
X144575800Y-36045800D01*
G37*
G36*
X127575800Y-34775800D02*
G01*
X125474200Y-34775800D01*
X125474200Y-33774200D01*
X127575800Y-33774200D01*
X127575800Y-34775800D01*
G37*
G36*
X144575800Y-34775800D02*
G01*
X142474200Y-34775800D01*
X142474200Y-33774200D01*
X144575800Y-33774200D01*
X144575800Y-34775800D01*
G37*
G36*
X123323465Y-32838546D02*
G01*
X123359996Y-32849628D01*
X123393660Y-32867621D01*
X123423165Y-32891835D01*
X123447379Y-32921340D01*
X123465372Y-32955004D01*
X123476454Y-32991535D01*
X123480800Y-33035660D01*
X123480800Y-33984340D01*
X123476454Y-34028465D01*
X123465372Y-34064996D01*
X123447379Y-34098660D01*
X123423165Y-34128165D01*
X123393660Y-34152379D01*
X123359996Y-34170372D01*
X123323465Y-34181454D01*
X123279340Y-34185800D01*
X121830660Y-34185800D01*
X121786535Y-34181454D01*
X121750004Y-34170372D01*
X121716340Y-34152379D01*
X121686835Y-34128165D01*
X121662621Y-34098660D01*
X121644628Y-34064996D01*
X121633546Y-34028465D01*
X121629200Y-33984340D01*
X121629200Y-33035660D01*
X121633546Y-32991535D01*
X121644628Y-32955004D01*
X121662621Y-32921340D01*
X121686835Y-32891835D01*
X121716340Y-32867621D01*
X121750004Y-32849628D01*
X121786535Y-32838546D01*
X121830660Y-32834200D01*
X123279340Y-32834200D01*
X123323465Y-32838546D01*
G37*
G36*
X127575800Y-33505800D02*
G01*
X125474200Y-33505800D01*
X125474200Y-32504200D01*
X127575800Y-32504200D01*
X127575800Y-33505800D01*
G37*
G36*
X144575800Y-33505800D02*
G01*
X142474200Y-33505800D01*
X142474200Y-32504200D01*
X144575800Y-32504200D01*
X144575800Y-33505800D01*
G37*
M02*
