G04 #@! TF.GenerationSoftware,KiCad,Pcbnew,(5.1.6)-1*
G04 #@! TF.CreationDate,2020-07-08T21:36:35-04:00*
G04 #@! TF.ProjectId,co2home,636f3268-6f6d-4652-9e6b-696361645f70,rev?*
G04 #@! TF.SameCoordinates,Original*
G04 #@! TF.FileFunction,Copper,L2,Bot*
G04 #@! TF.FilePolarity,Positive*
%FSLAX46Y46*%
G04 Gerber Fmt 4.6, Leading zero omitted, Abs format (unit mm)*
G04 Created by KiCad (PCBNEW (5.1.6)-1) date 2020-07-08 21:36:35*
%MOMM*%
%LPD*%
G01*
G04 APERTURE LIST*
G04 #@! TA.AperFunction,ComponentPad*
%ADD10O,1.700000X1.700000*%
G04 #@! TD*
G04 #@! TA.AperFunction,ComponentPad*
%ADD11R,1.700000X1.700000*%
G04 #@! TD*
G04 #@! TA.AperFunction,ComponentPad*
%ADD12O,1.350000X1.700000*%
G04 #@! TD*
G04 #@! TA.AperFunction,ComponentPad*
%ADD13O,1.100000X1.500000*%
G04 #@! TD*
G04 #@! TA.AperFunction,ComponentPad*
%ADD14C,1.700000*%
G04 #@! TD*
G04 #@! TA.AperFunction,ViaPad*
%ADD15C,0.508000*%
G04 #@! TD*
G04 #@! TA.AperFunction,ViaPad*
%ADD16C,0.700000*%
G04 #@! TD*
G04 #@! TA.AperFunction,Conductor*
%ADD17C,0.152400*%
G04 #@! TD*
G04 #@! TA.AperFunction,Conductor*
%ADD18C,0.300000*%
G04 #@! TD*
G04 #@! TA.AperFunction,Conductor*
%ADD19C,0.254000*%
G04 #@! TD*
G04 #@! TA.AperFunction,Conductor*
%ADD20C,0.025400*%
G04 #@! TD*
G04 APERTURE END LIST*
D10*
X141225000Y-56150000D03*
X138685000Y-56150000D03*
X136145000Y-56150000D03*
X133605000Y-56150000D03*
X131065000Y-56150000D03*
D11*
X128525000Y-56150000D03*
D12*
X137755000Y-104470000D03*
X132295000Y-104470000D03*
D13*
X137445000Y-101470000D03*
X132605000Y-101470000D03*
D14*
X149660000Y-87960000D03*
X149660000Y-85420000D03*
X149660000Y-82880000D03*
X149660000Y-80340000D03*
X120120000Y-90500000D03*
X120120000Y-87960000D03*
X120120000Y-85420000D03*
X120120000Y-82880000D03*
X120120000Y-80340000D03*
D15*
X140225000Y-38300000D03*
X140125000Y-36900000D03*
D16*
X133625000Y-64900000D03*
X135825002Y-65000000D03*
X152225000Y-63800000D03*
X140925000Y-61000000D03*
X128325000Y-63800000D03*
X120025000Y-33500000D03*
X130325000Y-34500000D03*
X133925000Y-36100000D03*
X129225000Y-52300000D03*
X125325000Y-56900000D03*
X147625000Y-33400000D03*
X139325000Y-33600000D03*
D15*
X138625000Y-53400000D03*
X138225000Y-47800000D03*
X130225000Y-47400000D03*
X123425000Y-45900000D03*
D17*
X140225000Y-43400000D02*
X140225000Y-38300000D01*
X133605000Y-56150000D02*
X133605000Y-50020000D01*
X133605000Y-50020000D02*
X140225000Y-43400000D01*
X139425000Y-37600000D02*
X140125000Y-36900000D01*
X131065000Y-56150000D02*
X131065000Y-51660000D01*
X139425000Y-43300000D02*
X139425000Y-37600000D01*
X131065000Y-51660000D02*
X139425000Y-43300000D01*
D18*
X133625000Y-64900000D02*
X135725002Y-64900000D01*
X135725002Y-64900000D02*
X135825002Y-65000000D01*
X149660000Y-82880000D02*
X152225000Y-80315000D01*
X152225000Y-80315000D02*
X152225000Y-63800000D01*
X128525000Y-56150000D02*
X128525000Y-53000000D01*
X128525000Y-53000000D02*
X129225000Y-52300000D01*
D17*
X138625000Y-53400000D02*
X138625000Y-48200000D01*
X138625000Y-48200000D02*
X138225000Y-47800000D01*
X130225000Y-47400000D02*
X124925000Y-47400000D01*
X124925000Y-47400000D02*
X123425000Y-45900000D01*
D19*
G36*
X152338841Y-31246422D02*
G01*
X152600150Y-31303320D01*
X152850698Y-31396864D01*
X153085362Y-31525142D01*
X153299360Y-31685539D01*
X153488330Y-31874784D01*
X153648414Y-32089016D01*
X153776350Y-32323868D01*
X153869528Y-32574550D01*
X153926048Y-32835950D01*
X153945073Y-33107269D01*
X153900918Y-63398196D01*
X153881173Y-63668965D01*
X153824101Y-63929742D01*
X153730535Y-64179739D01*
X153602369Y-64413907D01*
X153442212Y-64627467D01*
X153253318Y-64816086D01*
X153039521Y-64975934D01*
X152805175Y-65103755D01*
X152555032Y-65196959D01*
X152294177Y-65253651D01*
X152023382Y-65273000D01*
X136503150Y-65273000D01*
X136527910Y-65213225D01*
X136556002Y-65071997D01*
X136556002Y-64928003D01*
X136527910Y-64786775D01*
X136472806Y-64653742D01*
X136392807Y-64534015D01*
X136290987Y-64432195D01*
X136171260Y-64352196D01*
X136038227Y-64297092D01*
X135896999Y-64269000D01*
X135753005Y-64269000D01*
X135611777Y-64297092D01*
X135478744Y-64352196D01*
X135453595Y-64369000D01*
X134127790Y-64369000D01*
X134090985Y-64332195D01*
X133971258Y-64252196D01*
X133838225Y-64197092D01*
X133696997Y-64169000D01*
X133553003Y-64169000D01*
X133411775Y-64197092D01*
X133278742Y-64252196D01*
X133159015Y-64332195D01*
X133057195Y-64434015D01*
X132977196Y-64553742D01*
X132922092Y-64686775D01*
X132894000Y-64828003D01*
X132894000Y-64971997D01*
X132922092Y-65113225D01*
X132977196Y-65246258D01*
X132995064Y-65273000D01*
X117967762Y-65273000D01*
X117696658Y-65253605D01*
X117435519Y-65196785D01*
X117185119Y-65103366D01*
X116950578Y-64975263D01*
X116736652Y-64815070D01*
X116547711Y-64626059D01*
X116387599Y-64412079D01*
X116259578Y-64177488D01*
X116166252Y-63927057D01*
X116109527Y-63665899D01*
X116090231Y-63394774D01*
X116093033Y-55704889D01*
X118244000Y-55704889D01*
X118244000Y-56095111D01*
X118320129Y-56477836D01*
X118469461Y-56838355D01*
X118686257Y-57162814D01*
X118962186Y-57438743D01*
X119286645Y-57655539D01*
X119647164Y-57804871D01*
X120029889Y-57881000D01*
X120420111Y-57881000D01*
X120802836Y-57804871D01*
X121163355Y-57655539D01*
X121487814Y-57438743D01*
X121763743Y-57162814D01*
X121872531Y-57000000D01*
X127036928Y-57000000D01*
X127049188Y-57124482D01*
X127085498Y-57244180D01*
X127144463Y-57354494D01*
X127223815Y-57451185D01*
X127320506Y-57530537D01*
X127430820Y-57589502D01*
X127550518Y-57625812D01*
X127675000Y-57638072D01*
X128239250Y-57635000D01*
X128398000Y-57476250D01*
X128398000Y-56277000D01*
X127198750Y-56277000D01*
X127040000Y-56435750D01*
X127036928Y-57000000D01*
X121872531Y-57000000D01*
X121980539Y-56838355D01*
X122129871Y-56477836D01*
X122206000Y-56095111D01*
X122206000Y-55704889D01*
X122129871Y-55322164D01*
X122120691Y-55300000D01*
X127036928Y-55300000D01*
X127040000Y-55864250D01*
X127198750Y-56023000D01*
X128398000Y-56023000D01*
X128398000Y-54823750D01*
X128652000Y-54823750D01*
X128652000Y-56023000D01*
X128672000Y-56023000D01*
X128672000Y-56277000D01*
X128652000Y-56277000D01*
X128652000Y-57476250D01*
X128810750Y-57635000D01*
X129375000Y-57638072D01*
X129499482Y-57625812D01*
X129619180Y-57589502D01*
X129729494Y-57530537D01*
X129826185Y-57451185D01*
X129905537Y-57354494D01*
X129964502Y-57244180D01*
X130000812Y-57124482D01*
X130013072Y-57000000D01*
X130011927Y-56789706D01*
X130108820Y-56934717D01*
X130280283Y-57106180D01*
X130481903Y-57240898D01*
X130705931Y-57333693D01*
X130943757Y-57381000D01*
X131186243Y-57381000D01*
X131424069Y-57333693D01*
X131648097Y-57240898D01*
X131849717Y-57106180D01*
X132021180Y-56934717D01*
X132155898Y-56733097D01*
X132248693Y-56509069D01*
X132296000Y-56271243D01*
X132296000Y-56028757D01*
X132248693Y-55790931D01*
X132155898Y-55566903D01*
X132021180Y-55365283D01*
X131896120Y-55240223D01*
X131895541Y-55239477D01*
X131896306Y-55238807D01*
X131813574Y-55144295D01*
X131749087Y-55057641D01*
X131693303Y-54968240D01*
X131645681Y-54875496D01*
X131605971Y-54778992D01*
X131574012Y-54678208D01*
X131549716Y-54572326D01*
X131533229Y-54460849D01*
X131523889Y-54330717D01*
X131523027Y-54330779D01*
X131522200Y-54324392D01*
X131522200Y-51849377D01*
X133147801Y-50223776D01*
X133147800Y-54324990D01*
X133147025Y-54330782D01*
X133146112Y-54330716D01*
X133136773Y-54460838D01*
X133120284Y-54572326D01*
X133095988Y-54678208D01*
X133064029Y-54778992D01*
X133024319Y-54875496D01*
X132976697Y-54968240D01*
X132920913Y-55057641D01*
X132856426Y-55144295D01*
X132773694Y-55238807D01*
X132774097Y-55239160D01*
X132769795Y-55244308D01*
X132648820Y-55365283D01*
X132514102Y-55566903D01*
X132421307Y-55790931D01*
X132374000Y-56028757D01*
X132374000Y-56271243D01*
X132421307Y-56509069D01*
X132514102Y-56733097D01*
X132648820Y-56934717D01*
X132820283Y-57106180D01*
X133021903Y-57240898D01*
X133245931Y-57333693D01*
X133483757Y-57381000D01*
X133726243Y-57381000D01*
X133964069Y-57333693D01*
X134188097Y-57240898D01*
X134389717Y-57106180D01*
X134561180Y-56934717D01*
X134695898Y-56733097D01*
X134788693Y-56509069D01*
X134836000Y-56271243D01*
X134836000Y-56028757D01*
X134914000Y-56028757D01*
X134914000Y-56271243D01*
X134961307Y-56509069D01*
X135054102Y-56733097D01*
X135188820Y-56934717D01*
X135360283Y-57106180D01*
X135561903Y-57240898D01*
X135785931Y-57333693D01*
X136023757Y-57381000D01*
X136266243Y-57381000D01*
X136504069Y-57333693D01*
X136728097Y-57240898D01*
X136929717Y-57106180D01*
X137101180Y-56934717D01*
X137235898Y-56733097D01*
X137328693Y-56509069D01*
X137376000Y-56271243D01*
X137376000Y-56028757D01*
X137454000Y-56028757D01*
X137454000Y-56271243D01*
X137501307Y-56509069D01*
X137594102Y-56733097D01*
X137728820Y-56934717D01*
X137900283Y-57106180D01*
X138101903Y-57240898D01*
X138325931Y-57333693D01*
X138563757Y-57381000D01*
X138806243Y-57381000D01*
X139044069Y-57333693D01*
X139268097Y-57240898D01*
X139469717Y-57106180D01*
X139641180Y-56934717D01*
X139775898Y-56733097D01*
X139868693Y-56509069D01*
X139916000Y-56271243D01*
X139916000Y-56028757D01*
X139994000Y-56028757D01*
X139994000Y-56271243D01*
X140041307Y-56509069D01*
X140134102Y-56733097D01*
X140268820Y-56934717D01*
X140440283Y-57106180D01*
X140641903Y-57240898D01*
X140865931Y-57333693D01*
X141103757Y-57381000D01*
X141346243Y-57381000D01*
X141584069Y-57333693D01*
X141808097Y-57240898D01*
X142009717Y-57106180D01*
X142181180Y-56934717D01*
X142315898Y-56733097D01*
X142408693Y-56509069D01*
X142456000Y-56271243D01*
X142456000Y-56028757D01*
X142408693Y-55790931D01*
X142373054Y-55704889D01*
X148044000Y-55704889D01*
X148044000Y-56095111D01*
X148120129Y-56477836D01*
X148269461Y-56838355D01*
X148486257Y-57162814D01*
X148762186Y-57438743D01*
X149086645Y-57655539D01*
X149447164Y-57804871D01*
X149829889Y-57881000D01*
X150220111Y-57881000D01*
X150602836Y-57804871D01*
X150963355Y-57655539D01*
X151287814Y-57438743D01*
X151563743Y-57162814D01*
X151780539Y-56838355D01*
X151929871Y-56477836D01*
X152006000Y-56095111D01*
X152006000Y-55704889D01*
X151929871Y-55322164D01*
X151780539Y-54961645D01*
X151563743Y-54637186D01*
X151287814Y-54361257D01*
X150963355Y-54144461D01*
X150602836Y-53995129D01*
X150220111Y-53919000D01*
X149829889Y-53919000D01*
X149447164Y-53995129D01*
X149086645Y-54144461D01*
X148762186Y-54361257D01*
X148486257Y-54637186D01*
X148269461Y-54961645D01*
X148120129Y-55322164D01*
X148044000Y-55704889D01*
X142373054Y-55704889D01*
X142315898Y-55566903D01*
X142181180Y-55365283D01*
X142009717Y-55193820D01*
X141808097Y-55059102D01*
X141584069Y-54966307D01*
X141346243Y-54919000D01*
X141103757Y-54919000D01*
X140865931Y-54966307D01*
X140641903Y-55059102D01*
X140440283Y-55193820D01*
X140268820Y-55365283D01*
X140134102Y-55566903D01*
X140041307Y-55790931D01*
X139994000Y-56028757D01*
X139916000Y-56028757D01*
X139868693Y-55790931D01*
X139775898Y-55566903D01*
X139641180Y-55365283D01*
X139469717Y-55193820D01*
X139268097Y-55059102D01*
X139044069Y-54966307D01*
X138806243Y-54919000D01*
X138563757Y-54919000D01*
X138325931Y-54966307D01*
X138101903Y-55059102D01*
X137900283Y-55193820D01*
X137728820Y-55365283D01*
X137594102Y-55566903D01*
X137501307Y-55790931D01*
X137454000Y-56028757D01*
X137376000Y-56028757D01*
X137328693Y-55790931D01*
X137235898Y-55566903D01*
X137101180Y-55365283D01*
X136929717Y-55193820D01*
X136728097Y-55059102D01*
X136504069Y-54966307D01*
X136266243Y-54919000D01*
X136023757Y-54919000D01*
X135785931Y-54966307D01*
X135561903Y-55059102D01*
X135360283Y-55193820D01*
X135188820Y-55365283D01*
X135054102Y-55566903D01*
X134961307Y-55790931D01*
X134914000Y-56028757D01*
X134836000Y-56028757D01*
X134788693Y-55790931D01*
X134695898Y-55566903D01*
X134561180Y-55365283D01*
X134436120Y-55240223D01*
X134435541Y-55239477D01*
X134436306Y-55238807D01*
X134353574Y-55144295D01*
X134289087Y-55057641D01*
X134233303Y-54968240D01*
X134185681Y-54875496D01*
X134145971Y-54778992D01*
X134114012Y-54678208D01*
X134089716Y-54572326D01*
X134073229Y-54460849D01*
X134063889Y-54330717D01*
X134063027Y-54330779D01*
X134062200Y-54324392D01*
X134062200Y-50209377D01*
X136534119Y-47737458D01*
X137590000Y-47737458D01*
X137590000Y-47862542D01*
X137614403Y-47985223D01*
X137662271Y-48100785D01*
X137731764Y-48204789D01*
X137820211Y-48293236D01*
X137924215Y-48362729D01*
X138039777Y-48410597D01*
X138162458Y-48435000D01*
X138167801Y-48435000D01*
X138167800Y-52959175D01*
X138131764Y-52995211D01*
X138062271Y-53099215D01*
X138014403Y-53214777D01*
X137990000Y-53337458D01*
X137990000Y-53462542D01*
X138014403Y-53585223D01*
X138062271Y-53700785D01*
X138131764Y-53804789D01*
X138220211Y-53893236D01*
X138324215Y-53962729D01*
X138439777Y-54010597D01*
X138562458Y-54035000D01*
X138687542Y-54035000D01*
X138810223Y-54010597D01*
X138925785Y-53962729D01*
X139029789Y-53893236D01*
X139118236Y-53804789D01*
X139187729Y-53700785D01*
X139235597Y-53585223D01*
X139260000Y-53462542D01*
X139260000Y-53337458D01*
X139235597Y-53214777D01*
X139187729Y-53099215D01*
X139118236Y-52995211D01*
X139082200Y-52959175D01*
X139082200Y-48222449D01*
X139084411Y-48199999D01*
X139082200Y-48177549D01*
X139082200Y-48177540D01*
X139075585Y-48110373D01*
X139049441Y-48024191D01*
X139023581Y-47975809D01*
X139006987Y-47944763D01*
X138964170Y-47892592D01*
X138949853Y-47875147D01*
X138932408Y-47860830D01*
X138860000Y-47788422D01*
X138860000Y-47737458D01*
X138835597Y-47614777D01*
X138787729Y-47499215D01*
X138718236Y-47395211D01*
X138629789Y-47306764D01*
X138525785Y-47237271D01*
X138410223Y-47189403D01*
X138287542Y-47165000D01*
X138162458Y-47165000D01*
X138039777Y-47189403D01*
X137924215Y-47237271D01*
X137820211Y-47306764D01*
X137731764Y-47395211D01*
X137662271Y-47499215D01*
X137614403Y-47614777D01*
X137590000Y-47737458D01*
X136534119Y-47737458D01*
X140532409Y-43739169D01*
X140549853Y-43724853D01*
X140606987Y-43655236D01*
X140649441Y-43575809D01*
X140675585Y-43489627D01*
X140682200Y-43422460D01*
X140682200Y-43422450D01*
X140684411Y-43400000D01*
X140682200Y-43377550D01*
X140682200Y-38740825D01*
X140718236Y-38704789D01*
X140787729Y-38600785D01*
X140835597Y-38485223D01*
X140860000Y-38362542D01*
X140860000Y-38237458D01*
X140835597Y-38114777D01*
X140787729Y-37999215D01*
X140718236Y-37895211D01*
X140629789Y-37806764D01*
X140525785Y-37737271D01*
X140410223Y-37689403D01*
X140287542Y-37665000D01*
X140162458Y-37665000D01*
X140039777Y-37689403D01*
X139941442Y-37730135D01*
X140136578Y-37535000D01*
X140187542Y-37535000D01*
X140310223Y-37510597D01*
X140425785Y-37462729D01*
X140529789Y-37393236D01*
X140618236Y-37304789D01*
X140687729Y-37200785D01*
X140735597Y-37085223D01*
X140760000Y-36962542D01*
X140760000Y-36837458D01*
X140735597Y-36714777D01*
X140687729Y-36599215D01*
X140618236Y-36495211D01*
X140529789Y-36406764D01*
X140425785Y-36337271D01*
X140310223Y-36289403D01*
X140187542Y-36265000D01*
X140062458Y-36265000D01*
X139939777Y-36289403D01*
X139824215Y-36337271D01*
X139720211Y-36406764D01*
X139631764Y-36495211D01*
X139562271Y-36599215D01*
X139514403Y-36714777D01*
X139490000Y-36837458D01*
X139490000Y-36888422D01*
X139117592Y-37260831D01*
X139100148Y-37275147D01*
X139085831Y-37292592D01*
X139085830Y-37292593D01*
X139043013Y-37344765D01*
X139000560Y-37424191D01*
X138974416Y-37510374D01*
X138965589Y-37600000D01*
X138967801Y-37622460D01*
X138967800Y-43110622D01*
X130757593Y-51320830D01*
X130740148Y-51335147D01*
X130725831Y-51352592D01*
X130725830Y-51352593D01*
X130683013Y-51404765D01*
X130640560Y-51484191D01*
X130614416Y-51570374D01*
X130605589Y-51660000D01*
X130607801Y-51682460D01*
X130607800Y-54324989D01*
X130607025Y-54330782D01*
X130606112Y-54330716D01*
X130596773Y-54460838D01*
X130580284Y-54572326D01*
X130555988Y-54678208D01*
X130524029Y-54778992D01*
X130484319Y-54875496D01*
X130436697Y-54968240D01*
X130380913Y-55057641D01*
X130316426Y-55144295D01*
X130233694Y-55238807D01*
X130234097Y-55239160D01*
X130229795Y-55244308D01*
X130108820Y-55365283D01*
X130011927Y-55510294D01*
X130013072Y-55300000D01*
X130000812Y-55175518D01*
X129964502Y-55055820D01*
X129905537Y-54945506D01*
X129826185Y-54848815D01*
X129729494Y-54769463D01*
X129619180Y-54710498D01*
X129499482Y-54674188D01*
X129375000Y-54661928D01*
X128810750Y-54665000D01*
X128652000Y-54823750D01*
X128398000Y-54823750D01*
X128239250Y-54665000D01*
X127675000Y-54661928D01*
X127550518Y-54674188D01*
X127430820Y-54710498D01*
X127320506Y-54769463D01*
X127223815Y-54848815D01*
X127144463Y-54945506D01*
X127085498Y-55055820D01*
X127049188Y-55175518D01*
X127036928Y-55300000D01*
X122120691Y-55300000D01*
X121980539Y-54961645D01*
X121763743Y-54637186D01*
X121487814Y-54361257D01*
X121163355Y-54144461D01*
X120802836Y-53995129D01*
X120420111Y-53919000D01*
X120029889Y-53919000D01*
X119647164Y-53995129D01*
X119286645Y-54144461D01*
X118962186Y-54361257D01*
X118686257Y-54637186D01*
X118469461Y-54961645D01*
X118320129Y-55322164D01*
X118244000Y-55704889D01*
X116093033Y-55704889D01*
X116096628Y-45837458D01*
X122790000Y-45837458D01*
X122790000Y-45962542D01*
X122814403Y-46085223D01*
X122862271Y-46200785D01*
X122931764Y-46304789D01*
X123020211Y-46393236D01*
X123124215Y-46462729D01*
X123239777Y-46510597D01*
X123362458Y-46535000D01*
X123413423Y-46535000D01*
X124585830Y-47707408D01*
X124600147Y-47724853D01*
X124617592Y-47739170D01*
X124669763Y-47781987D01*
X124703464Y-47800000D01*
X124749191Y-47824441D01*
X124835373Y-47850585D01*
X124902540Y-47857200D01*
X124902549Y-47857200D01*
X124924999Y-47859411D01*
X124947449Y-47857200D01*
X129784175Y-47857200D01*
X129820211Y-47893236D01*
X129924215Y-47962729D01*
X130039777Y-48010597D01*
X130162458Y-48035000D01*
X130287542Y-48035000D01*
X130410223Y-48010597D01*
X130525785Y-47962729D01*
X130629789Y-47893236D01*
X130718236Y-47804789D01*
X130787729Y-47700785D01*
X130835597Y-47585223D01*
X130860000Y-47462542D01*
X130860000Y-47337458D01*
X130835597Y-47214777D01*
X130787729Y-47099215D01*
X130718236Y-46995211D01*
X130629789Y-46906764D01*
X130525785Y-46837271D01*
X130410223Y-46789403D01*
X130287542Y-46765000D01*
X130162458Y-46765000D01*
X130039777Y-46789403D01*
X129924215Y-46837271D01*
X129820211Y-46906764D01*
X129784175Y-46942800D01*
X125114378Y-46942800D01*
X124060000Y-45888423D01*
X124060000Y-45837458D01*
X124035597Y-45714777D01*
X123987729Y-45599215D01*
X123918236Y-45495211D01*
X123829789Y-45406764D01*
X123725785Y-45337271D01*
X123610223Y-45289403D01*
X123487542Y-45265000D01*
X123362458Y-45265000D01*
X123239777Y-45289403D01*
X123124215Y-45337271D01*
X123020211Y-45406764D01*
X122931764Y-45495211D01*
X122862271Y-45599215D01*
X122814403Y-45714777D01*
X122790000Y-45837458D01*
X116096628Y-45837458D01*
X116101269Y-33103848D01*
X116120745Y-32832877D01*
X116177609Y-32571872D01*
X116271033Y-32321609D01*
X116399111Y-32087188D01*
X116559239Y-31873378D01*
X116748164Y-31684523D01*
X116962035Y-31524471D01*
X117196504Y-31396476D01*
X117446793Y-31303147D01*
X117707821Y-31246377D01*
X117978812Y-31227000D01*
X152067539Y-31227000D01*
X152338841Y-31246422D01*
G37*
X152338841Y-31246422D02*
X152600150Y-31303320D01*
X152850698Y-31396864D01*
X153085362Y-31525142D01*
X153299360Y-31685539D01*
X153488330Y-31874784D01*
X153648414Y-32089016D01*
X153776350Y-32323868D01*
X153869528Y-32574550D01*
X153926048Y-32835950D01*
X153945073Y-33107269D01*
X153900918Y-63398196D01*
X153881173Y-63668965D01*
X153824101Y-63929742D01*
X153730535Y-64179739D01*
X153602369Y-64413907D01*
X153442212Y-64627467D01*
X153253318Y-64816086D01*
X153039521Y-64975934D01*
X152805175Y-65103755D01*
X152555032Y-65196959D01*
X152294177Y-65253651D01*
X152023382Y-65273000D01*
X136503150Y-65273000D01*
X136527910Y-65213225D01*
X136556002Y-65071997D01*
X136556002Y-64928003D01*
X136527910Y-64786775D01*
X136472806Y-64653742D01*
X136392807Y-64534015D01*
X136290987Y-64432195D01*
X136171260Y-64352196D01*
X136038227Y-64297092D01*
X135896999Y-64269000D01*
X135753005Y-64269000D01*
X135611777Y-64297092D01*
X135478744Y-64352196D01*
X135453595Y-64369000D01*
X134127790Y-64369000D01*
X134090985Y-64332195D01*
X133971258Y-64252196D01*
X133838225Y-64197092D01*
X133696997Y-64169000D01*
X133553003Y-64169000D01*
X133411775Y-64197092D01*
X133278742Y-64252196D01*
X133159015Y-64332195D01*
X133057195Y-64434015D01*
X132977196Y-64553742D01*
X132922092Y-64686775D01*
X132894000Y-64828003D01*
X132894000Y-64971997D01*
X132922092Y-65113225D01*
X132977196Y-65246258D01*
X132995064Y-65273000D01*
X117967762Y-65273000D01*
X117696658Y-65253605D01*
X117435519Y-65196785D01*
X117185119Y-65103366D01*
X116950578Y-64975263D01*
X116736652Y-64815070D01*
X116547711Y-64626059D01*
X116387599Y-64412079D01*
X116259578Y-64177488D01*
X116166252Y-63927057D01*
X116109527Y-63665899D01*
X116090231Y-63394774D01*
X116093033Y-55704889D01*
X118244000Y-55704889D01*
X118244000Y-56095111D01*
X118320129Y-56477836D01*
X118469461Y-56838355D01*
X118686257Y-57162814D01*
X118962186Y-57438743D01*
X119286645Y-57655539D01*
X119647164Y-57804871D01*
X120029889Y-57881000D01*
X120420111Y-57881000D01*
X120802836Y-57804871D01*
X121163355Y-57655539D01*
X121487814Y-57438743D01*
X121763743Y-57162814D01*
X121872531Y-57000000D01*
X127036928Y-57000000D01*
X127049188Y-57124482D01*
X127085498Y-57244180D01*
X127144463Y-57354494D01*
X127223815Y-57451185D01*
X127320506Y-57530537D01*
X127430820Y-57589502D01*
X127550518Y-57625812D01*
X127675000Y-57638072D01*
X128239250Y-57635000D01*
X128398000Y-57476250D01*
X128398000Y-56277000D01*
X127198750Y-56277000D01*
X127040000Y-56435750D01*
X127036928Y-57000000D01*
X121872531Y-57000000D01*
X121980539Y-56838355D01*
X122129871Y-56477836D01*
X122206000Y-56095111D01*
X122206000Y-55704889D01*
X122129871Y-55322164D01*
X122120691Y-55300000D01*
X127036928Y-55300000D01*
X127040000Y-55864250D01*
X127198750Y-56023000D01*
X128398000Y-56023000D01*
X128398000Y-54823750D01*
X128652000Y-54823750D01*
X128652000Y-56023000D01*
X128672000Y-56023000D01*
X128672000Y-56277000D01*
X128652000Y-56277000D01*
X128652000Y-57476250D01*
X128810750Y-57635000D01*
X129375000Y-57638072D01*
X129499482Y-57625812D01*
X129619180Y-57589502D01*
X129729494Y-57530537D01*
X129826185Y-57451185D01*
X129905537Y-57354494D01*
X129964502Y-57244180D01*
X130000812Y-57124482D01*
X130013072Y-57000000D01*
X130011927Y-56789706D01*
X130108820Y-56934717D01*
X130280283Y-57106180D01*
X130481903Y-57240898D01*
X130705931Y-57333693D01*
X130943757Y-57381000D01*
X131186243Y-57381000D01*
X131424069Y-57333693D01*
X131648097Y-57240898D01*
X131849717Y-57106180D01*
X132021180Y-56934717D01*
X132155898Y-56733097D01*
X132248693Y-56509069D01*
X132296000Y-56271243D01*
X132296000Y-56028757D01*
X132248693Y-55790931D01*
X132155898Y-55566903D01*
X132021180Y-55365283D01*
X131896120Y-55240223D01*
X131895541Y-55239477D01*
X131896306Y-55238807D01*
X131813574Y-55144295D01*
X131749087Y-55057641D01*
X131693303Y-54968240D01*
X131645681Y-54875496D01*
X131605971Y-54778992D01*
X131574012Y-54678208D01*
X131549716Y-54572326D01*
X131533229Y-54460849D01*
X131523889Y-54330717D01*
X131523027Y-54330779D01*
X131522200Y-54324392D01*
X131522200Y-51849377D01*
X133147801Y-50223776D01*
X133147800Y-54324990D01*
X133147025Y-54330782D01*
X133146112Y-54330716D01*
X133136773Y-54460838D01*
X133120284Y-54572326D01*
X133095988Y-54678208D01*
X133064029Y-54778992D01*
X133024319Y-54875496D01*
X132976697Y-54968240D01*
X132920913Y-55057641D01*
X132856426Y-55144295D01*
X132773694Y-55238807D01*
X132774097Y-55239160D01*
X132769795Y-55244308D01*
X132648820Y-55365283D01*
X132514102Y-55566903D01*
X132421307Y-55790931D01*
X132374000Y-56028757D01*
X132374000Y-56271243D01*
X132421307Y-56509069D01*
X132514102Y-56733097D01*
X132648820Y-56934717D01*
X132820283Y-57106180D01*
X133021903Y-57240898D01*
X133245931Y-57333693D01*
X133483757Y-57381000D01*
X133726243Y-57381000D01*
X133964069Y-57333693D01*
X134188097Y-57240898D01*
X134389717Y-57106180D01*
X134561180Y-56934717D01*
X134695898Y-56733097D01*
X134788693Y-56509069D01*
X134836000Y-56271243D01*
X134836000Y-56028757D01*
X134914000Y-56028757D01*
X134914000Y-56271243D01*
X134961307Y-56509069D01*
X135054102Y-56733097D01*
X135188820Y-56934717D01*
X135360283Y-57106180D01*
X135561903Y-57240898D01*
X135785931Y-57333693D01*
X136023757Y-57381000D01*
X136266243Y-57381000D01*
X136504069Y-57333693D01*
X136728097Y-57240898D01*
X136929717Y-57106180D01*
X137101180Y-56934717D01*
X137235898Y-56733097D01*
X137328693Y-56509069D01*
X137376000Y-56271243D01*
X137376000Y-56028757D01*
X137454000Y-56028757D01*
X137454000Y-56271243D01*
X137501307Y-56509069D01*
X137594102Y-56733097D01*
X137728820Y-56934717D01*
X137900283Y-57106180D01*
X138101903Y-57240898D01*
X138325931Y-57333693D01*
X138563757Y-57381000D01*
X138806243Y-57381000D01*
X139044069Y-57333693D01*
X139268097Y-57240898D01*
X139469717Y-57106180D01*
X139641180Y-56934717D01*
X139775898Y-56733097D01*
X139868693Y-56509069D01*
X139916000Y-56271243D01*
X139916000Y-56028757D01*
X139994000Y-56028757D01*
X139994000Y-56271243D01*
X140041307Y-56509069D01*
X140134102Y-56733097D01*
X140268820Y-56934717D01*
X140440283Y-57106180D01*
X140641903Y-57240898D01*
X140865931Y-57333693D01*
X141103757Y-57381000D01*
X141346243Y-57381000D01*
X141584069Y-57333693D01*
X141808097Y-57240898D01*
X142009717Y-57106180D01*
X142181180Y-56934717D01*
X142315898Y-56733097D01*
X142408693Y-56509069D01*
X142456000Y-56271243D01*
X142456000Y-56028757D01*
X142408693Y-55790931D01*
X142373054Y-55704889D01*
X148044000Y-55704889D01*
X148044000Y-56095111D01*
X148120129Y-56477836D01*
X148269461Y-56838355D01*
X148486257Y-57162814D01*
X148762186Y-57438743D01*
X149086645Y-57655539D01*
X149447164Y-57804871D01*
X149829889Y-57881000D01*
X150220111Y-57881000D01*
X150602836Y-57804871D01*
X150963355Y-57655539D01*
X151287814Y-57438743D01*
X151563743Y-57162814D01*
X151780539Y-56838355D01*
X151929871Y-56477836D01*
X152006000Y-56095111D01*
X152006000Y-55704889D01*
X151929871Y-55322164D01*
X151780539Y-54961645D01*
X151563743Y-54637186D01*
X151287814Y-54361257D01*
X150963355Y-54144461D01*
X150602836Y-53995129D01*
X150220111Y-53919000D01*
X149829889Y-53919000D01*
X149447164Y-53995129D01*
X149086645Y-54144461D01*
X148762186Y-54361257D01*
X148486257Y-54637186D01*
X148269461Y-54961645D01*
X148120129Y-55322164D01*
X148044000Y-55704889D01*
X142373054Y-55704889D01*
X142315898Y-55566903D01*
X142181180Y-55365283D01*
X142009717Y-55193820D01*
X141808097Y-55059102D01*
X141584069Y-54966307D01*
X141346243Y-54919000D01*
X141103757Y-54919000D01*
X140865931Y-54966307D01*
X140641903Y-55059102D01*
X140440283Y-55193820D01*
X140268820Y-55365283D01*
X140134102Y-55566903D01*
X140041307Y-55790931D01*
X139994000Y-56028757D01*
X139916000Y-56028757D01*
X139868693Y-55790931D01*
X139775898Y-55566903D01*
X139641180Y-55365283D01*
X139469717Y-55193820D01*
X139268097Y-55059102D01*
X139044069Y-54966307D01*
X138806243Y-54919000D01*
X138563757Y-54919000D01*
X138325931Y-54966307D01*
X138101903Y-55059102D01*
X137900283Y-55193820D01*
X137728820Y-55365283D01*
X137594102Y-55566903D01*
X137501307Y-55790931D01*
X137454000Y-56028757D01*
X137376000Y-56028757D01*
X137328693Y-55790931D01*
X137235898Y-55566903D01*
X137101180Y-55365283D01*
X136929717Y-55193820D01*
X136728097Y-55059102D01*
X136504069Y-54966307D01*
X136266243Y-54919000D01*
X136023757Y-54919000D01*
X135785931Y-54966307D01*
X135561903Y-55059102D01*
X135360283Y-55193820D01*
X135188820Y-55365283D01*
X135054102Y-55566903D01*
X134961307Y-55790931D01*
X134914000Y-56028757D01*
X134836000Y-56028757D01*
X134788693Y-55790931D01*
X134695898Y-55566903D01*
X134561180Y-55365283D01*
X134436120Y-55240223D01*
X134435541Y-55239477D01*
X134436306Y-55238807D01*
X134353574Y-55144295D01*
X134289087Y-55057641D01*
X134233303Y-54968240D01*
X134185681Y-54875496D01*
X134145971Y-54778992D01*
X134114012Y-54678208D01*
X134089716Y-54572326D01*
X134073229Y-54460849D01*
X134063889Y-54330717D01*
X134063027Y-54330779D01*
X134062200Y-54324392D01*
X134062200Y-50209377D01*
X136534119Y-47737458D01*
X137590000Y-47737458D01*
X137590000Y-47862542D01*
X137614403Y-47985223D01*
X137662271Y-48100785D01*
X137731764Y-48204789D01*
X137820211Y-48293236D01*
X137924215Y-48362729D01*
X138039777Y-48410597D01*
X138162458Y-48435000D01*
X138167801Y-48435000D01*
X138167800Y-52959175D01*
X138131764Y-52995211D01*
X138062271Y-53099215D01*
X138014403Y-53214777D01*
X137990000Y-53337458D01*
X137990000Y-53462542D01*
X138014403Y-53585223D01*
X138062271Y-53700785D01*
X138131764Y-53804789D01*
X138220211Y-53893236D01*
X138324215Y-53962729D01*
X138439777Y-54010597D01*
X138562458Y-54035000D01*
X138687542Y-54035000D01*
X138810223Y-54010597D01*
X138925785Y-53962729D01*
X139029789Y-53893236D01*
X139118236Y-53804789D01*
X139187729Y-53700785D01*
X139235597Y-53585223D01*
X139260000Y-53462542D01*
X139260000Y-53337458D01*
X139235597Y-53214777D01*
X139187729Y-53099215D01*
X139118236Y-52995211D01*
X139082200Y-52959175D01*
X139082200Y-48222449D01*
X139084411Y-48199999D01*
X139082200Y-48177549D01*
X139082200Y-48177540D01*
X139075585Y-48110373D01*
X139049441Y-48024191D01*
X139023581Y-47975809D01*
X139006987Y-47944763D01*
X138964170Y-47892592D01*
X138949853Y-47875147D01*
X138932408Y-47860830D01*
X138860000Y-47788422D01*
X138860000Y-47737458D01*
X138835597Y-47614777D01*
X138787729Y-47499215D01*
X138718236Y-47395211D01*
X138629789Y-47306764D01*
X138525785Y-47237271D01*
X138410223Y-47189403D01*
X138287542Y-47165000D01*
X138162458Y-47165000D01*
X138039777Y-47189403D01*
X137924215Y-47237271D01*
X137820211Y-47306764D01*
X137731764Y-47395211D01*
X137662271Y-47499215D01*
X137614403Y-47614777D01*
X137590000Y-47737458D01*
X136534119Y-47737458D01*
X140532409Y-43739169D01*
X140549853Y-43724853D01*
X140606987Y-43655236D01*
X140649441Y-43575809D01*
X140675585Y-43489627D01*
X140682200Y-43422460D01*
X140682200Y-43422450D01*
X140684411Y-43400000D01*
X140682200Y-43377550D01*
X140682200Y-38740825D01*
X140718236Y-38704789D01*
X140787729Y-38600785D01*
X140835597Y-38485223D01*
X140860000Y-38362542D01*
X140860000Y-38237458D01*
X140835597Y-38114777D01*
X140787729Y-37999215D01*
X140718236Y-37895211D01*
X140629789Y-37806764D01*
X140525785Y-37737271D01*
X140410223Y-37689403D01*
X140287542Y-37665000D01*
X140162458Y-37665000D01*
X140039777Y-37689403D01*
X139941442Y-37730135D01*
X140136578Y-37535000D01*
X140187542Y-37535000D01*
X140310223Y-37510597D01*
X140425785Y-37462729D01*
X140529789Y-37393236D01*
X140618236Y-37304789D01*
X140687729Y-37200785D01*
X140735597Y-37085223D01*
X140760000Y-36962542D01*
X140760000Y-36837458D01*
X140735597Y-36714777D01*
X140687729Y-36599215D01*
X140618236Y-36495211D01*
X140529789Y-36406764D01*
X140425785Y-36337271D01*
X140310223Y-36289403D01*
X140187542Y-36265000D01*
X140062458Y-36265000D01*
X139939777Y-36289403D01*
X139824215Y-36337271D01*
X139720211Y-36406764D01*
X139631764Y-36495211D01*
X139562271Y-36599215D01*
X139514403Y-36714777D01*
X139490000Y-36837458D01*
X139490000Y-36888422D01*
X139117592Y-37260831D01*
X139100148Y-37275147D01*
X139085831Y-37292592D01*
X139085830Y-37292593D01*
X139043013Y-37344765D01*
X139000560Y-37424191D01*
X138974416Y-37510374D01*
X138965589Y-37600000D01*
X138967801Y-37622460D01*
X138967800Y-43110622D01*
X130757593Y-51320830D01*
X130740148Y-51335147D01*
X130725831Y-51352592D01*
X130725830Y-51352593D01*
X130683013Y-51404765D01*
X130640560Y-51484191D01*
X130614416Y-51570374D01*
X130605589Y-51660000D01*
X130607801Y-51682460D01*
X130607800Y-54324989D01*
X130607025Y-54330782D01*
X130606112Y-54330716D01*
X130596773Y-54460838D01*
X130580284Y-54572326D01*
X130555988Y-54678208D01*
X130524029Y-54778992D01*
X130484319Y-54875496D01*
X130436697Y-54968240D01*
X130380913Y-55057641D01*
X130316426Y-55144295D01*
X130233694Y-55238807D01*
X130234097Y-55239160D01*
X130229795Y-55244308D01*
X130108820Y-55365283D01*
X130011927Y-55510294D01*
X130013072Y-55300000D01*
X130000812Y-55175518D01*
X129964502Y-55055820D01*
X129905537Y-54945506D01*
X129826185Y-54848815D01*
X129729494Y-54769463D01*
X129619180Y-54710498D01*
X129499482Y-54674188D01*
X129375000Y-54661928D01*
X128810750Y-54665000D01*
X128652000Y-54823750D01*
X128398000Y-54823750D01*
X128239250Y-54665000D01*
X127675000Y-54661928D01*
X127550518Y-54674188D01*
X127430820Y-54710498D01*
X127320506Y-54769463D01*
X127223815Y-54848815D01*
X127144463Y-54945506D01*
X127085498Y-55055820D01*
X127049188Y-55175518D01*
X127036928Y-55300000D01*
X122120691Y-55300000D01*
X121980539Y-54961645D01*
X121763743Y-54637186D01*
X121487814Y-54361257D01*
X121163355Y-54144461D01*
X120802836Y-53995129D01*
X120420111Y-53919000D01*
X120029889Y-53919000D01*
X119647164Y-53995129D01*
X119286645Y-54144461D01*
X118962186Y-54361257D01*
X118686257Y-54637186D01*
X118469461Y-54961645D01*
X118320129Y-55322164D01*
X118244000Y-55704889D01*
X116093033Y-55704889D01*
X116096628Y-45837458D01*
X122790000Y-45837458D01*
X122790000Y-45962542D01*
X122814403Y-46085223D01*
X122862271Y-46200785D01*
X122931764Y-46304789D01*
X123020211Y-46393236D01*
X123124215Y-46462729D01*
X123239777Y-46510597D01*
X123362458Y-46535000D01*
X123413423Y-46535000D01*
X124585830Y-47707408D01*
X124600147Y-47724853D01*
X124617592Y-47739170D01*
X124669763Y-47781987D01*
X124703464Y-47800000D01*
X124749191Y-47824441D01*
X124835373Y-47850585D01*
X124902540Y-47857200D01*
X124902549Y-47857200D01*
X124924999Y-47859411D01*
X124947449Y-47857200D01*
X129784175Y-47857200D01*
X129820211Y-47893236D01*
X129924215Y-47962729D01*
X130039777Y-48010597D01*
X130162458Y-48035000D01*
X130287542Y-48035000D01*
X130410223Y-48010597D01*
X130525785Y-47962729D01*
X130629789Y-47893236D01*
X130718236Y-47804789D01*
X130787729Y-47700785D01*
X130835597Y-47585223D01*
X130860000Y-47462542D01*
X130860000Y-47337458D01*
X130835597Y-47214777D01*
X130787729Y-47099215D01*
X130718236Y-46995211D01*
X130629789Y-46906764D01*
X130525785Y-46837271D01*
X130410223Y-46789403D01*
X130287542Y-46765000D01*
X130162458Y-46765000D01*
X130039777Y-46789403D01*
X129924215Y-46837271D01*
X129820211Y-46906764D01*
X129784175Y-46942800D01*
X125114378Y-46942800D01*
X124060000Y-45888423D01*
X124060000Y-45837458D01*
X124035597Y-45714777D01*
X123987729Y-45599215D01*
X123918236Y-45495211D01*
X123829789Y-45406764D01*
X123725785Y-45337271D01*
X123610223Y-45289403D01*
X123487542Y-45265000D01*
X123362458Y-45265000D01*
X123239777Y-45289403D01*
X123124215Y-45337271D01*
X123020211Y-45406764D01*
X122931764Y-45495211D01*
X122862271Y-45599215D01*
X122814403Y-45714777D01*
X122790000Y-45837458D01*
X116096628Y-45837458D01*
X116101269Y-33103848D01*
X116120745Y-32832877D01*
X116177609Y-32571872D01*
X116271033Y-32321609D01*
X116399111Y-32087188D01*
X116559239Y-31873378D01*
X116748164Y-31684523D01*
X116962035Y-31524471D01*
X117196504Y-31396476D01*
X117446793Y-31303147D01*
X117707821Y-31246377D01*
X117978812Y-31227000D01*
X152067539Y-31227000D01*
X152338841Y-31246422D01*
D20*
G36*
X140304017Y-38335480D02*
G01*
X140382679Y-38471919D01*
X140380998Y-38486177D01*
X140365301Y-38504124D01*
X140364960Y-38504530D01*
X140364825Y-38504698D01*
X140364531Y-38505079D01*
X140348410Y-38526776D01*
X140348133Y-38527164D01*
X140348063Y-38527266D01*
X140347753Y-38527740D01*
X140333599Y-38550476D01*
X140333490Y-38550654D01*
X140333475Y-38550679D01*
X140333060Y-38551426D01*
X140320883Y-38575213D01*
X140320937Y-38575241D01*
X140320437Y-38576181D01*
X140310299Y-38600906D01*
X140310126Y-38601352D01*
X140310104Y-38601412D01*
X140309917Y-38601960D01*
X140301831Y-38627566D01*
X140301695Y-38628028D01*
X140301653Y-38628181D01*
X140301519Y-38628715D01*
X140295469Y-38655203D01*
X140295370Y-38655678D01*
X140295324Y-38655922D01*
X140295239Y-38656426D01*
X140291211Y-38683800D01*
X140291150Y-38684280D01*
X140291114Y-38684612D01*
X140291072Y-38685077D01*
X140289370Y-38708921D01*
X140281476Y-38716544D01*
X140168524Y-38716544D01*
X140160630Y-38708921D01*
X140158928Y-38685077D01*
X140158886Y-38684612D01*
X140158850Y-38684280D01*
X140158789Y-38683800D01*
X140154761Y-38656427D01*
X140154678Y-38655932D01*
X140154632Y-38655687D01*
X140154531Y-38655203D01*
X140148481Y-38628715D01*
X140148347Y-38628181D01*
X140148305Y-38628028D01*
X140148168Y-38627566D01*
X140140082Y-38601961D01*
X140139919Y-38601476D01*
X140139897Y-38601415D01*
X140139701Y-38600906D01*
X140129563Y-38576182D01*
X140129468Y-38576221D01*
X140129117Y-38575212D01*
X140116940Y-38551426D01*
X140116636Y-38550867D01*
X140116621Y-38550841D01*
X140116401Y-38550475D01*
X140102247Y-38527740D01*
X140101937Y-38527266D01*
X140101867Y-38527164D01*
X140101590Y-38526776D01*
X140085469Y-38505079D01*
X140085175Y-38504698D01*
X140085040Y-38504530D01*
X140084699Y-38504124D01*
X140069002Y-38486177D01*
X140067321Y-38471919D01*
X140145983Y-38335480D01*
X140194507Y-38294729D01*
X140255493Y-38294729D01*
X140304017Y-38335480D01*
G37*
X140304017Y-38335480D02*
X140382679Y-38471919D01*
X140380998Y-38486177D01*
X140365301Y-38504124D01*
X140364960Y-38504530D01*
X140364825Y-38504698D01*
X140364531Y-38505079D01*
X140348410Y-38526776D01*
X140348133Y-38527164D01*
X140348063Y-38527266D01*
X140347753Y-38527740D01*
X140333599Y-38550476D01*
X140333490Y-38550654D01*
X140333475Y-38550679D01*
X140333060Y-38551426D01*
X140320883Y-38575213D01*
X140320937Y-38575241D01*
X140320437Y-38576181D01*
X140310299Y-38600906D01*
X140310126Y-38601352D01*
X140310104Y-38601412D01*
X140309917Y-38601960D01*
X140301831Y-38627566D01*
X140301695Y-38628028D01*
X140301653Y-38628181D01*
X140301519Y-38628715D01*
X140295469Y-38655203D01*
X140295370Y-38655678D01*
X140295324Y-38655922D01*
X140295239Y-38656426D01*
X140291211Y-38683800D01*
X140291150Y-38684280D01*
X140291114Y-38684612D01*
X140291072Y-38685077D01*
X140289370Y-38708921D01*
X140281476Y-38716544D01*
X140168524Y-38716544D01*
X140160630Y-38708921D01*
X140158928Y-38685077D01*
X140158886Y-38684612D01*
X140158850Y-38684280D01*
X140158789Y-38683800D01*
X140154761Y-38656427D01*
X140154678Y-38655932D01*
X140154632Y-38655687D01*
X140154531Y-38655203D01*
X140148481Y-38628715D01*
X140148347Y-38628181D01*
X140148305Y-38628028D01*
X140148168Y-38627566D01*
X140140082Y-38601961D01*
X140139919Y-38601476D01*
X140139897Y-38601415D01*
X140139701Y-38600906D01*
X140129563Y-38576182D01*
X140129468Y-38576221D01*
X140129117Y-38575212D01*
X140116940Y-38551426D01*
X140116636Y-38550867D01*
X140116621Y-38550841D01*
X140116401Y-38550475D01*
X140102247Y-38527740D01*
X140101937Y-38527266D01*
X140101867Y-38527164D01*
X140101590Y-38526776D01*
X140085469Y-38505079D01*
X140085175Y-38504698D01*
X140085040Y-38504530D01*
X140084699Y-38504124D01*
X140069002Y-38486177D01*
X140067321Y-38471919D01*
X140145983Y-38335480D01*
X140194507Y-38294729D01*
X140255493Y-38294729D01*
X140304017Y-38335480D01*
G36*
X133650896Y-54313276D02*
G01*
X133671197Y-54358862D01*
X133671199Y-54358900D01*
X133681503Y-54502469D01*
X133681544Y-54502933D01*
X133681723Y-54504579D01*
X133681786Y-54505064D01*
X133702359Y-54644168D01*
X133702440Y-54644654D01*
X133702665Y-54645852D01*
X133702769Y-54646348D01*
X133733672Y-54781020D01*
X133733795Y-54781512D01*
X133733994Y-54782244D01*
X133734143Y-54782751D01*
X133775448Y-54913009D01*
X133775628Y-54913535D01*
X133775725Y-54913800D01*
X133775906Y-54914268D01*
X133827689Y-55040111D01*
X133828136Y-55041079D01*
X133890294Y-55162134D01*
X133890542Y-55162593D01*
X133890640Y-55162766D01*
X133890915Y-55163229D01*
X133963165Y-55279018D01*
X133963454Y-55279460D01*
X133963836Y-55280019D01*
X133964134Y-55280436D01*
X134046425Y-55391015D01*
X134046736Y-55391417D01*
X134047453Y-55392304D01*
X134047774Y-55392685D01*
X134140067Y-55498119D01*
X134163098Y-55547334D01*
X134152160Y-55600530D01*
X133892054Y-56051683D01*
X133817549Y-56140565D01*
X133718103Y-56198020D01*
X133605000Y-56217976D01*
X133491897Y-56198020D01*
X133392451Y-56140565D01*
X133317946Y-56051683D01*
X133057840Y-55600530D01*
X133046902Y-55547334D01*
X133069933Y-55498119D01*
X133162226Y-55392685D01*
X133162547Y-55392304D01*
X133163264Y-55391417D01*
X133163575Y-55391015D01*
X133245866Y-55280436D01*
X133246164Y-55280019D01*
X133246546Y-55279460D01*
X133246835Y-55279018D01*
X133319085Y-55163229D01*
X133319360Y-55162766D01*
X133319458Y-55162593D01*
X133319706Y-55162134D01*
X133381864Y-55041079D01*
X133382311Y-55040111D01*
X133434094Y-54914268D01*
X133434275Y-54913800D01*
X133434372Y-54913535D01*
X133434552Y-54913009D01*
X133475857Y-54782751D01*
X133476006Y-54782244D01*
X133476205Y-54781512D01*
X133476328Y-54781020D01*
X133507231Y-54646348D01*
X133507335Y-54645852D01*
X133507560Y-54644654D01*
X133507641Y-54644168D01*
X133528214Y-54505064D01*
X133528277Y-54504578D01*
X133528456Y-54502931D01*
X133528497Y-54502468D01*
X133538801Y-54358900D01*
X133538803Y-54358862D01*
X133559104Y-54313276D01*
X133605000Y-54294734D01*
X133650896Y-54313276D01*
G37*
X133650896Y-54313276D02*
X133671197Y-54358862D01*
X133671199Y-54358900D01*
X133681503Y-54502469D01*
X133681544Y-54502933D01*
X133681723Y-54504579D01*
X133681786Y-54505064D01*
X133702359Y-54644168D01*
X133702440Y-54644654D01*
X133702665Y-54645852D01*
X133702769Y-54646348D01*
X133733672Y-54781020D01*
X133733795Y-54781512D01*
X133733994Y-54782244D01*
X133734143Y-54782751D01*
X133775448Y-54913009D01*
X133775628Y-54913535D01*
X133775725Y-54913800D01*
X133775906Y-54914268D01*
X133827689Y-55040111D01*
X133828136Y-55041079D01*
X133890294Y-55162134D01*
X133890542Y-55162593D01*
X133890640Y-55162766D01*
X133890915Y-55163229D01*
X133963165Y-55279018D01*
X133963454Y-55279460D01*
X133963836Y-55280019D01*
X133964134Y-55280436D01*
X134046425Y-55391015D01*
X134046736Y-55391417D01*
X134047453Y-55392304D01*
X134047774Y-55392685D01*
X134140067Y-55498119D01*
X134163098Y-55547334D01*
X134152160Y-55600530D01*
X133892054Y-56051683D01*
X133817549Y-56140565D01*
X133718103Y-56198020D01*
X133605000Y-56217976D01*
X133491897Y-56198020D01*
X133392451Y-56140565D01*
X133317946Y-56051683D01*
X133057840Y-55600530D01*
X133046902Y-55547334D01*
X133069933Y-55498119D01*
X133162226Y-55392685D01*
X133162547Y-55392304D01*
X133163264Y-55391417D01*
X133163575Y-55391015D01*
X133245866Y-55280436D01*
X133246164Y-55280019D01*
X133246546Y-55279460D01*
X133246835Y-55279018D01*
X133319085Y-55163229D01*
X133319360Y-55162766D01*
X133319458Y-55162593D01*
X133319706Y-55162134D01*
X133381864Y-55041079D01*
X133382311Y-55040111D01*
X133434094Y-54914268D01*
X133434275Y-54913800D01*
X133434372Y-54913535D01*
X133434552Y-54913009D01*
X133475857Y-54782751D01*
X133476006Y-54782244D01*
X133476205Y-54781512D01*
X133476328Y-54781020D01*
X133507231Y-54646348D01*
X133507335Y-54645852D01*
X133507560Y-54644654D01*
X133507641Y-54644168D01*
X133528214Y-54505064D01*
X133528277Y-54504578D01*
X133528456Y-54502931D01*
X133528497Y-54502468D01*
X133538801Y-54358900D01*
X133538803Y-54358862D01*
X133559104Y-54313276D01*
X133605000Y-54294734D01*
X133650896Y-54313276D01*
G36*
X140107167Y-36874713D02*
G01*
X140150287Y-36917833D01*
X140155785Y-36980963D01*
X140114931Y-37133061D01*
X140103662Y-37141953D01*
X140079869Y-37143545D01*
X140079418Y-37143584D01*
X140079204Y-37143606D01*
X140078650Y-37143675D01*
X140051909Y-37147618D01*
X140051409Y-37147702D01*
X140051287Y-37147725D01*
X140050763Y-37147835D01*
X140024678Y-37153903D01*
X140024178Y-37154030D01*
X140024149Y-37154038D01*
X140023625Y-37154195D01*
X139998195Y-37162404D01*
X139998214Y-37162462D01*
X139997194Y-37162773D01*
X139972543Y-37173087D01*
X139972000Y-37173329D01*
X139971941Y-37173357D01*
X139971527Y-37173563D01*
X139947703Y-37185951D01*
X139947252Y-37186197D01*
X139947114Y-37186276D01*
X139946669Y-37186544D01*
X139923661Y-37200996D01*
X139923230Y-37201279D01*
X139923026Y-37201419D01*
X139922635Y-37201698D01*
X139900430Y-37218206D01*
X139900050Y-37218500D01*
X139899790Y-37218709D01*
X139899429Y-37219010D01*
X139881366Y-37234667D01*
X139870393Y-37234476D01*
X139790524Y-37154607D01*
X139790333Y-37143633D01*
X139805989Y-37125570D01*
X139806290Y-37125209D01*
X139806499Y-37124949D01*
X139806793Y-37124569D01*
X139823301Y-37102365D01*
X139823597Y-37101950D01*
X139823737Y-37101745D01*
X139824003Y-37101338D01*
X139838455Y-37078330D01*
X139838723Y-37077885D01*
X139838802Y-37077747D01*
X139839048Y-37077296D01*
X139851436Y-37053472D01*
X139851642Y-37053058D01*
X139851670Y-37052999D01*
X139851912Y-37052456D01*
X139862226Y-37027805D01*
X139862539Y-37026786D01*
X139862595Y-37026804D01*
X139870804Y-37001374D01*
X139870929Y-37000962D01*
X139870937Y-37000934D01*
X139871096Y-37000322D01*
X139877164Y-36974236D01*
X139877274Y-36973712D01*
X139877297Y-36973590D01*
X139877381Y-36973090D01*
X139881324Y-36946349D01*
X139881387Y-36945853D01*
X139881410Y-36945639D01*
X139881455Y-36945129D01*
X139883046Y-36921339D01*
X139891938Y-36910069D01*
X140044038Y-36869215D01*
X140107167Y-36874713D01*
G37*
X140107167Y-36874713D02*
X140150287Y-36917833D01*
X140155785Y-36980963D01*
X140114931Y-37133061D01*
X140103662Y-37141953D01*
X140079869Y-37143545D01*
X140079418Y-37143584D01*
X140079204Y-37143606D01*
X140078650Y-37143675D01*
X140051909Y-37147618D01*
X140051409Y-37147702D01*
X140051287Y-37147725D01*
X140050763Y-37147835D01*
X140024678Y-37153903D01*
X140024178Y-37154030D01*
X140024149Y-37154038D01*
X140023625Y-37154195D01*
X139998195Y-37162404D01*
X139998214Y-37162462D01*
X139997194Y-37162773D01*
X139972543Y-37173087D01*
X139972000Y-37173329D01*
X139971941Y-37173357D01*
X139971527Y-37173563D01*
X139947703Y-37185951D01*
X139947252Y-37186197D01*
X139947114Y-37186276D01*
X139946669Y-37186544D01*
X139923661Y-37200996D01*
X139923230Y-37201279D01*
X139923026Y-37201419D01*
X139922635Y-37201698D01*
X139900430Y-37218206D01*
X139900050Y-37218500D01*
X139899790Y-37218709D01*
X139899429Y-37219010D01*
X139881366Y-37234667D01*
X139870393Y-37234476D01*
X139790524Y-37154607D01*
X139790333Y-37143633D01*
X139805989Y-37125570D01*
X139806290Y-37125209D01*
X139806499Y-37124949D01*
X139806793Y-37124569D01*
X139823301Y-37102365D01*
X139823597Y-37101950D01*
X139823737Y-37101745D01*
X139824003Y-37101338D01*
X139838455Y-37078330D01*
X139838723Y-37077885D01*
X139838802Y-37077747D01*
X139839048Y-37077296D01*
X139851436Y-37053472D01*
X139851642Y-37053058D01*
X139851670Y-37052999D01*
X139851912Y-37052456D01*
X139862226Y-37027805D01*
X139862539Y-37026786D01*
X139862595Y-37026804D01*
X139870804Y-37001374D01*
X139870929Y-37000962D01*
X139870937Y-37000934D01*
X139871096Y-37000322D01*
X139877164Y-36974236D01*
X139877274Y-36973712D01*
X139877297Y-36973590D01*
X139877381Y-36973090D01*
X139881324Y-36946349D01*
X139881387Y-36945853D01*
X139881410Y-36945639D01*
X139881455Y-36945129D01*
X139883046Y-36921339D01*
X139891938Y-36910069D01*
X140044038Y-36869215D01*
X140107167Y-36874713D01*
G36*
X131110896Y-54313276D02*
G01*
X131131197Y-54358862D01*
X131131199Y-54358900D01*
X131141503Y-54502469D01*
X131141544Y-54502933D01*
X131141723Y-54504579D01*
X131141786Y-54505064D01*
X131162359Y-54644168D01*
X131162440Y-54644654D01*
X131162665Y-54645852D01*
X131162769Y-54646348D01*
X131193672Y-54781020D01*
X131193795Y-54781512D01*
X131193994Y-54782244D01*
X131194143Y-54782751D01*
X131235448Y-54913009D01*
X131235628Y-54913535D01*
X131235725Y-54913800D01*
X131235906Y-54914268D01*
X131287689Y-55040111D01*
X131288136Y-55041079D01*
X131350294Y-55162134D01*
X131350542Y-55162593D01*
X131350640Y-55162766D01*
X131350915Y-55163229D01*
X131423165Y-55279018D01*
X131423454Y-55279460D01*
X131423836Y-55280019D01*
X131424134Y-55280436D01*
X131506425Y-55391015D01*
X131506736Y-55391417D01*
X131507453Y-55392304D01*
X131507774Y-55392685D01*
X131600067Y-55498119D01*
X131623098Y-55547334D01*
X131612160Y-55600530D01*
X131352054Y-56051683D01*
X131277549Y-56140565D01*
X131178103Y-56198020D01*
X131065000Y-56217976D01*
X130951897Y-56198020D01*
X130852451Y-56140565D01*
X130777946Y-56051683D01*
X130517840Y-55600530D01*
X130506902Y-55547334D01*
X130529933Y-55498119D01*
X130622226Y-55392685D01*
X130622547Y-55392304D01*
X130623264Y-55391417D01*
X130623575Y-55391015D01*
X130705866Y-55280436D01*
X130706164Y-55280019D01*
X130706546Y-55279460D01*
X130706835Y-55279018D01*
X130779085Y-55163229D01*
X130779360Y-55162766D01*
X130779458Y-55162593D01*
X130779706Y-55162134D01*
X130841864Y-55041079D01*
X130842311Y-55040111D01*
X130894094Y-54914268D01*
X130894275Y-54913800D01*
X130894372Y-54913535D01*
X130894552Y-54913009D01*
X130935857Y-54782751D01*
X130936006Y-54782244D01*
X130936205Y-54781512D01*
X130936328Y-54781020D01*
X130967231Y-54646348D01*
X130967335Y-54645852D01*
X130967560Y-54644654D01*
X130967641Y-54644168D01*
X130988214Y-54505064D01*
X130988277Y-54504578D01*
X130988456Y-54502931D01*
X130988497Y-54502468D01*
X130998801Y-54358900D01*
X130998803Y-54358862D01*
X131019104Y-54313276D01*
X131065000Y-54294734D01*
X131110896Y-54313276D01*
G37*
X131110896Y-54313276D02*
X131131197Y-54358862D01*
X131131199Y-54358900D01*
X131141503Y-54502469D01*
X131141544Y-54502933D01*
X131141723Y-54504579D01*
X131141786Y-54505064D01*
X131162359Y-54644168D01*
X131162440Y-54644654D01*
X131162665Y-54645852D01*
X131162769Y-54646348D01*
X131193672Y-54781020D01*
X131193795Y-54781512D01*
X131193994Y-54782244D01*
X131194143Y-54782751D01*
X131235448Y-54913009D01*
X131235628Y-54913535D01*
X131235725Y-54913800D01*
X131235906Y-54914268D01*
X131287689Y-55040111D01*
X131288136Y-55041079D01*
X131350294Y-55162134D01*
X131350542Y-55162593D01*
X131350640Y-55162766D01*
X131350915Y-55163229D01*
X131423165Y-55279018D01*
X131423454Y-55279460D01*
X131423836Y-55280019D01*
X131424134Y-55280436D01*
X131506425Y-55391015D01*
X131506736Y-55391417D01*
X131507453Y-55392304D01*
X131507774Y-55392685D01*
X131600067Y-55498119D01*
X131623098Y-55547334D01*
X131612160Y-55600530D01*
X131352054Y-56051683D01*
X131277549Y-56140565D01*
X131178103Y-56198020D01*
X131065000Y-56217976D01*
X130951897Y-56198020D01*
X130852451Y-56140565D01*
X130777946Y-56051683D01*
X130517840Y-55600530D01*
X130506902Y-55547334D01*
X130529933Y-55498119D01*
X130622226Y-55392685D01*
X130622547Y-55392304D01*
X130623264Y-55391417D01*
X130623575Y-55391015D01*
X130705866Y-55280436D01*
X130706164Y-55280019D01*
X130706546Y-55279460D01*
X130706835Y-55279018D01*
X130779085Y-55163229D01*
X130779360Y-55162766D01*
X130779458Y-55162593D01*
X130779706Y-55162134D01*
X130841864Y-55041079D01*
X130842311Y-55040111D01*
X130894094Y-54914268D01*
X130894275Y-54913800D01*
X130894372Y-54913535D01*
X130894552Y-54913009D01*
X130935857Y-54782751D01*
X130936006Y-54782244D01*
X130936205Y-54781512D01*
X130936328Y-54781020D01*
X130967231Y-54646348D01*
X130967335Y-54645852D01*
X130967560Y-54644654D01*
X130967641Y-54644168D01*
X130988214Y-54505064D01*
X130988277Y-54504578D01*
X130988456Y-54502931D01*
X130988497Y-54502468D01*
X130998801Y-54358900D01*
X130998803Y-54358862D01*
X131019104Y-54313276D01*
X131065000Y-54294734D01*
X131110896Y-54313276D01*
G36*
X133879084Y-64676177D02*
G01*
X133895695Y-64690689D01*
X133896053Y-64690990D01*
X133896201Y-64691110D01*
X133896636Y-64691447D01*
X133916978Y-64706527D01*
X133917356Y-64706797D01*
X133917442Y-64706856D01*
X133917930Y-64707175D01*
X133939267Y-64720416D01*
X133939308Y-64720441D01*
X133939321Y-64720449D01*
X133940208Y-64720947D01*
X133962551Y-64732339D01*
X133963522Y-64732784D01*
X133986742Y-64742259D01*
X133987158Y-64742420D01*
X133987226Y-64742445D01*
X133987803Y-64742642D01*
X134011870Y-64750200D01*
X134012353Y-64750341D01*
X134012508Y-64750383D01*
X134013019Y-64750510D01*
X134037934Y-64756165D01*
X134038414Y-64756264D01*
X134038655Y-64756309D01*
X134039150Y-64756392D01*
X134064916Y-64760157D01*
X134065380Y-64760216D01*
X134065702Y-64760251D01*
X134066177Y-64760293D01*
X134088358Y-64761864D01*
X134095140Y-64768885D01*
X134095140Y-65031115D01*
X134088359Y-65038135D01*
X134066178Y-65039706D01*
X134065707Y-65039748D01*
X134065384Y-65039783D01*
X134064916Y-65039842D01*
X134039150Y-65043607D01*
X134038655Y-65043690D01*
X134038414Y-65043735D01*
X134037934Y-65043834D01*
X134013020Y-65049489D01*
X134012529Y-65049611D01*
X134012373Y-65049653D01*
X134011870Y-65049799D01*
X133987804Y-65057357D01*
X133987283Y-65057534D01*
X133987214Y-65057559D01*
X133986742Y-65057740D01*
X133963522Y-65067215D01*
X133962551Y-65067660D01*
X133940208Y-65079052D01*
X133939321Y-65079550D01*
X133939308Y-65079558D01*
X133939267Y-65079583D01*
X133917930Y-65092824D01*
X133917442Y-65093143D01*
X133917356Y-65093202D01*
X133916978Y-65093472D01*
X133896636Y-65108552D01*
X133896233Y-65108863D01*
X133896084Y-65108983D01*
X133895694Y-65109310D01*
X133879082Y-65123823D01*
X133866264Y-65125333D01*
X133670268Y-65012334D01*
X133622051Y-64964161D01*
X133604849Y-64900000D01*
X133622050Y-64835840D01*
X133670270Y-64787666D01*
X133866264Y-64674667D01*
X133879084Y-64676177D01*
G37*
X133879084Y-64676177D02*
X133895695Y-64690689D01*
X133896053Y-64690990D01*
X133896201Y-64691110D01*
X133896636Y-64691447D01*
X133916978Y-64706527D01*
X133917356Y-64706797D01*
X133917442Y-64706856D01*
X133917930Y-64707175D01*
X133939267Y-64720416D01*
X133939308Y-64720441D01*
X133939321Y-64720449D01*
X133940208Y-64720947D01*
X133962551Y-64732339D01*
X133963522Y-64732784D01*
X133986742Y-64742259D01*
X133987158Y-64742420D01*
X133987226Y-64742445D01*
X133987803Y-64742642D01*
X134011870Y-64750200D01*
X134012353Y-64750341D01*
X134012508Y-64750383D01*
X134013019Y-64750510D01*
X134037934Y-64756165D01*
X134038414Y-64756264D01*
X134038655Y-64756309D01*
X134039150Y-64756392D01*
X134064916Y-64760157D01*
X134065380Y-64760216D01*
X134065702Y-64760251D01*
X134066177Y-64760293D01*
X134088358Y-64761864D01*
X134095140Y-64768885D01*
X134095140Y-65031115D01*
X134088359Y-65038135D01*
X134066178Y-65039706D01*
X134065707Y-65039748D01*
X134065384Y-65039783D01*
X134064916Y-65039842D01*
X134039150Y-65043607D01*
X134038655Y-65043690D01*
X134038414Y-65043735D01*
X134037934Y-65043834D01*
X134013020Y-65049489D01*
X134012529Y-65049611D01*
X134012373Y-65049653D01*
X134011870Y-65049799D01*
X133987804Y-65057357D01*
X133987283Y-65057534D01*
X133987214Y-65057559D01*
X133986742Y-65057740D01*
X133963522Y-65067215D01*
X133962551Y-65067660D01*
X133940208Y-65079052D01*
X133939321Y-65079550D01*
X133939308Y-65079558D01*
X133939267Y-65079583D01*
X133917930Y-65092824D01*
X133917442Y-65093143D01*
X133917356Y-65093202D01*
X133916978Y-65093472D01*
X133896636Y-65108552D01*
X133896233Y-65108863D01*
X133896084Y-65108983D01*
X133895694Y-65109310D01*
X133879082Y-65123823D01*
X133866264Y-65125333D01*
X133670268Y-65012334D01*
X133622051Y-64964161D01*
X133604849Y-64900000D01*
X133622050Y-64835840D01*
X133670270Y-64787666D01*
X133866264Y-64674667D01*
X133879084Y-64676177D01*
G36*
X135306165Y-64787088D02*
G01*
X135306499Y-64787202D01*
X135308353Y-64787805D01*
X135308764Y-64787931D01*
X135348998Y-64799528D01*
X135349406Y-64799638D01*
X135351188Y-64800088D01*
X135351686Y-64800204D01*
X135389060Y-64808054D01*
X135389558Y-64808148D01*
X135391223Y-64808429D01*
X135391833Y-64808517D01*
X135426390Y-64812636D01*
X135426999Y-64812693D01*
X135428487Y-64812798D01*
X135429223Y-64812829D01*
X135461024Y-64813224D01*
X135461757Y-64813212D01*
X135462993Y-64813156D01*
X135463867Y-64813086D01*
X135492987Y-64809742D01*
X135493852Y-64809612D01*
X135494748Y-64809446D01*
X135495732Y-64809223D01*
X135522259Y-64802089D01*
X135523232Y-64801785D01*
X135523722Y-64801610D01*
X135524752Y-64801191D01*
X135548752Y-64790166D01*
X135549802Y-64789623D01*
X135549873Y-64789582D01*
X135550811Y-64788984D01*
X135569525Y-64775869D01*
X135583608Y-64774593D01*
X135779735Y-64887667D01*
X135827951Y-64935839D01*
X135845153Y-65000000D01*
X135827951Y-65064161D01*
X135779735Y-65112334D01*
X135584355Y-65224977D01*
X135570461Y-65223331D01*
X135552754Y-65207601D01*
X135552440Y-65207332D01*
X135551572Y-65206610D01*
X135551297Y-65206388D01*
X135527758Y-65187894D01*
X135527477Y-65187679D01*
X135526525Y-65186973D01*
X135526279Y-65186795D01*
X135499876Y-65168178D01*
X135499623Y-65168004D01*
X135498603Y-65167321D01*
X135498384Y-65167178D01*
X135469106Y-65148437D01*
X135468888Y-65148300D01*
X135467811Y-65147641D01*
X135467608Y-65147520D01*
X135435443Y-65128652D01*
X135435241Y-65128536D01*
X135434117Y-65127904D01*
X135433943Y-65127807D01*
X135398886Y-65108814D01*
X135398700Y-65108716D01*
X135397534Y-65108109D01*
X135397383Y-65108031D01*
X135359426Y-65088914D01*
X135359270Y-65088837D01*
X135358072Y-65088254D01*
X135357925Y-65088184D01*
X135317063Y-65068943D01*
X135316919Y-65068876D01*
X135314169Y-65067623D01*
X135314041Y-65067566D01*
X135273922Y-65049818D01*
X135254862Y-65020898D01*
X135254862Y-64778078D01*
X135257699Y-64772699D01*
X135263799Y-64771995D01*
X135306165Y-64787088D01*
G37*
X135306165Y-64787088D02*
X135306499Y-64787202D01*
X135308353Y-64787805D01*
X135308764Y-64787931D01*
X135348998Y-64799528D01*
X135349406Y-64799638D01*
X135351188Y-64800088D01*
X135351686Y-64800204D01*
X135389060Y-64808054D01*
X135389558Y-64808148D01*
X135391223Y-64808429D01*
X135391833Y-64808517D01*
X135426390Y-64812636D01*
X135426999Y-64812693D01*
X135428487Y-64812798D01*
X135429223Y-64812829D01*
X135461024Y-64813224D01*
X135461757Y-64813212D01*
X135462993Y-64813156D01*
X135463867Y-64813086D01*
X135492987Y-64809742D01*
X135493852Y-64809612D01*
X135494748Y-64809446D01*
X135495732Y-64809223D01*
X135522259Y-64802089D01*
X135523232Y-64801785D01*
X135523722Y-64801610D01*
X135524752Y-64801191D01*
X135548752Y-64790166D01*
X135549802Y-64789623D01*
X135549873Y-64789582D01*
X135550811Y-64788984D01*
X135569525Y-64775869D01*
X135583608Y-64774593D01*
X135779735Y-64887667D01*
X135827951Y-64935839D01*
X135845153Y-65000000D01*
X135827951Y-65064161D01*
X135779735Y-65112334D01*
X135584355Y-65224977D01*
X135570461Y-65223331D01*
X135552754Y-65207601D01*
X135552440Y-65207332D01*
X135551572Y-65206610D01*
X135551297Y-65206388D01*
X135527758Y-65187894D01*
X135527477Y-65187679D01*
X135526525Y-65186973D01*
X135526279Y-65186795D01*
X135499876Y-65168178D01*
X135499623Y-65168004D01*
X135498603Y-65167321D01*
X135498384Y-65167178D01*
X135469106Y-65148437D01*
X135468888Y-65148300D01*
X135467811Y-65147641D01*
X135467608Y-65147520D01*
X135435443Y-65128652D01*
X135435241Y-65128536D01*
X135434117Y-65127904D01*
X135433943Y-65127807D01*
X135398886Y-65108814D01*
X135398700Y-65108716D01*
X135397534Y-65108109D01*
X135397383Y-65108031D01*
X135359426Y-65088914D01*
X135359270Y-65088837D01*
X135358072Y-65088254D01*
X135357925Y-65088184D01*
X135317063Y-65068943D01*
X135316919Y-65068876D01*
X135314169Y-65067623D01*
X135314041Y-65067566D01*
X135273922Y-65049818D01*
X135254862Y-65020898D01*
X135254862Y-64778078D01*
X135257699Y-64772699D01*
X135263799Y-64771995D01*
X135306165Y-64787088D01*
G36*
X150786681Y-81634705D02*
G01*
X150905294Y-81753318D01*
X150921624Y-81791786D01*
X150906632Y-81830846D01*
X150825831Y-81924119D01*
X150825536Y-81924472D01*
X150824637Y-81925589D01*
X150824335Y-81925980D01*
X150752314Y-82022956D01*
X150752038Y-82023343D01*
X150751439Y-82024216D01*
X150751152Y-82024653D01*
X150688101Y-82125189D01*
X150687840Y-82125624D01*
X150687510Y-82126200D01*
X150687258Y-82126663D01*
X150633210Y-82230812D01*
X150632996Y-82231242D01*
X150632887Y-82231473D01*
X150632653Y-82232001D01*
X150587654Y-82339810D01*
X150587285Y-82340811D01*
X150551489Y-82452015D01*
X150551337Y-82452524D01*
X150551295Y-82452676D01*
X150551164Y-82453189D01*
X150524704Y-82567301D01*
X150524594Y-82567825D01*
X150524489Y-82568384D01*
X150524406Y-82568883D01*
X150507212Y-82685909D01*
X150507147Y-82686428D01*
X150507046Y-82687389D01*
X150507004Y-82687872D01*
X150499035Y-82807560D01*
X150483440Y-82850579D01*
X150445282Y-82875723D01*
X149932500Y-83013456D01*
X149816965Y-83023624D01*
X149706020Y-82993932D01*
X149611934Y-82928066D01*
X149546068Y-82833980D01*
X149516376Y-82723035D01*
X149526544Y-82607501D01*
X149664278Y-82094718D01*
X149689421Y-82056560D01*
X149732440Y-82040965D01*
X149852127Y-82032996D01*
X149852623Y-82032953D01*
X149853584Y-82032851D01*
X149854090Y-82032787D01*
X149971116Y-82015594D01*
X149971636Y-82015507D01*
X149972195Y-82015401D01*
X149972698Y-82015295D01*
X150086811Y-81988835D01*
X150087345Y-81988699D01*
X150087496Y-81988657D01*
X150087984Y-81988510D01*
X150199189Y-81952715D01*
X150200167Y-81952291D01*
X150200190Y-81952345D01*
X150307999Y-81907346D01*
X150308527Y-81907112D01*
X150308758Y-81907003D01*
X150309188Y-81906789D01*
X150413336Y-81852741D01*
X150413791Y-81852493D01*
X150414368Y-81852163D01*
X150414811Y-81851898D01*
X150515346Y-81788847D01*
X150515775Y-81788566D01*
X150516648Y-81787968D01*
X150517043Y-81787686D01*
X150614019Y-81715664D01*
X150614405Y-81715365D01*
X150615523Y-81714466D01*
X150615881Y-81714168D01*
X150709152Y-81633369D01*
X150748214Y-81618376D01*
X150786681Y-81634705D01*
G37*
X150786681Y-81634705D02*
X150905294Y-81753318D01*
X150921624Y-81791786D01*
X150906632Y-81830846D01*
X150825831Y-81924119D01*
X150825536Y-81924472D01*
X150824637Y-81925589D01*
X150824335Y-81925980D01*
X150752314Y-82022956D01*
X150752038Y-82023343D01*
X150751439Y-82024216D01*
X150751152Y-82024653D01*
X150688101Y-82125189D01*
X150687840Y-82125624D01*
X150687510Y-82126200D01*
X150687258Y-82126663D01*
X150633210Y-82230812D01*
X150632996Y-82231242D01*
X150632887Y-82231473D01*
X150632653Y-82232001D01*
X150587654Y-82339810D01*
X150587285Y-82340811D01*
X150551489Y-82452015D01*
X150551337Y-82452524D01*
X150551295Y-82452676D01*
X150551164Y-82453189D01*
X150524704Y-82567301D01*
X150524594Y-82567825D01*
X150524489Y-82568384D01*
X150524406Y-82568883D01*
X150507212Y-82685909D01*
X150507147Y-82686428D01*
X150507046Y-82687389D01*
X150507004Y-82687872D01*
X150499035Y-82807560D01*
X150483440Y-82850579D01*
X150445282Y-82875723D01*
X149932500Y-83013456D01*
X149816965Y-83023624D01*
X149706020Y-82993932D01*
X149611934Y-82928066D01*
X149546068Y-82833980D01*
X149516376Y-82723035D01*
X149526544Y-82607501D01*
X149664278Y-82094718D01*
X149689421Y-82056560D01*
X149732440Y-82040965D01*
X149852127Y-82032996D01*
X149852623Y-82032953D01*
X149853584Y-82032851D01*
X149854090Y-82032787D01*
X149971116Y-82015594D01*
X149971636Y-82015507D01*
X149972195Y-82015401D01*
X149972698Y-82015295D01*
X150086811Y-81988835D01*
X150087345Y-81988699D01*
X150087496Y-81988657D01*
X150087984Y-81988510D01*
X150199189Y-81952715D01*
X150200167Y-81952291D01*
X150200190Y-81952345D01*
X150307999Y-81907346D01*
X150308527Y-81907112D01*
X150308758Y-81907003D01*
X150309188Y-81906789D01*
X150413336Y-81852741D01*
X150413791Y-81852493D01*
X150414368Y-81852163D01*
X150414811Y-81851898D01*
X150515346Y-81788847D01*
X150515775Y-81788566D01*
X150516648Y-81787968D01*
X150517043Y-81787686D01*
X150614019Y-81715664D01*
X150614405Y-81715365D01*
X150615523Y-81714466D01*
X150615881Y-81714168D01*
X150709152Y-81633369D01*
X150748214Y-81618376D01*
X150786681Y-81634705D01*
G36*
X138689370Y-52991079D02*
G01*
X138691072Y-53014922D01*
X138691114Y-53015387D01*
X138691150Y-53015719D01*
X138691211Y-53016199D01*
X138695239Y-53043573D01*
X138695324Y-53044077D01*
X138695370Y-53044321D01*
X138695469Y-53044796D01*
X138701519Y-53071284D01*
X138701633Y-53071743D01*
X138701674Y-53071896D01*
X138701831Y-53072434D01*
X138709918Y-53098040D01*
X138710081Y-53098524D01*
X138710103Y-53098585D01*
X138710299Y-53099094D01*
X138720437Y-53123818D01*
X138720883Y-53124788D01*
X138733060Y-53148573D01*
X138733263Y-53148953D01*
X138733278Y-53148980D01*
X138733599Y-53149524D01*
X138747753Y-53172259D01*
X138748063Y-53172733D01*
X138748133Y-53172835D01*
X138748410Y-53173223D01*
X138764531Y-53194920D01*
X138764825Y-53195301D01*
X138764960Y-53195469D01*
X138765301Y-53195875D01*
X138780998Y-53213822D01*
X138782679Y-53228081D01*
X138704017Y-53364520D01*
X138655493Y-53405271D01*
X138594507Y-53405271D01*
X138545983Y-53364520D01*
X138467321Y-53228081D01*
X138469002Y-53213822D01*
X138484699Y-53195875D01*
X138485040Y-53195469D01*
X138485175Y-53195301D01*
X138485469Y-53194921D01*
X138501590Y-53173225D01*
X138501900Y-53172789D01*
X138501970Y-53172686D01*
X138502247Y-53172259D01*
X138516401Y-53149524D01*
X138516722Y-53148980D01*
X138516737Y-53148953D01*
X138516940Y-53148573D01*
X138529117Y-53124788D01*
X138529563Y-53123818D01*
X138539701Y-53099094D01*
X138539897Y-53098585D01*
X138539919Y-53098524D01*
X138540082Y-53098040D01*
X138548169Y-53072434D01*
X138548326Y-53071896D01*
X138548367Y-53071743D01*
X138548481Y-53071284D01*
X138554531Y-53044796D01*
X138554630Y-53044321D01*
X138554676Y-53044077D01*
X138554761Y-53043573D01*
X138558789Y-53016199D01*
X138558850Y-53015719D01*
X138558886Y-53015387D01*
X138558928Y-53014922D01*
X138560630Y-52991079D01*
X138568524Y-52983456D01*
X138681476Y-52983456D01*
X138689370Y-52991079D01*
G37*
X138689370Y-52991079D02*
X138691072Y-53014922D01*
X138691114Y-53015387D01*
X138691150Y-53015719D01*
X138691211Y-53016199D01*
X138695239Y-53043573D01*
X138695324Y-53044077D01*
X138695370Y-53044321D01*
X138695469Y-53044796D01*
X138701519Y-53071284D01*
X138701633Y-53071743D01*
X138701674Y-53071896D01*
X138701831Y-53072434D01*
X138709918Y-53098040D01*
X138710081Y-53098524D01*
X138710103Y-53098585D01*
X138710299Y-53099094D01*
X138720437Y-53123818D01*
X138720883Y-53124788D01*
X138733060Y-53148573D01*
X138733263Y-53148953D01*
X138733278Y-53148980D01*
X138733599Y-53149524D01*
X138747753Y-53172259D01*
X138748063Y-53172733D01*
X138748133Y-53172835D01*
X138748410Y-53173223D01*
X138764531Y-53194920D01*
X138764825Y-53195301D01*
X138764960Y-53195469D01*
X138765301Y-53195875D01*
X138780998Y-53213822D01*
X138782679Y-53228081D01*
X138704017Y-53364520D01*
X138655493Y-53405271D01*
X138594507Y-53405271D01*
X138545983Y-53364520D01*
X138467321Y-53228081D01*
X138469002Y-53213822D01*
X138484699Y-53195875D01*
X138485040Y-53195469D01*
X138485175Y-53195301D01*
X138485469Y-53194921D01*
X138501590Y-53173225D01*
X138501900Y-53172789D01*
X138501970Y-53172686D01*
X138502247Y-53172259D01*
X138516401Y-53149524D01*
X138516722Y-53148980D01*
X138516737Y-53148953D01*
X138516940Y-53148573D01*
X138529117Y-53124788D01*
X138529563Y-53123818D01*
X138539701Y-53099094D01*
X138539897Y-53098585D01*
X138539919Y-53098524D01*
X138540082Y-53098040D01*
X138548169Y-53072434D01*
X138548326Y-53071896D01*
X138548367Y-53071743D01*
X138548481Y-53071284D01*
X138554531Y-53044796D01*
X138554630Y-53044321D01*
X138554676Y-53044077D01*
X138554761Y-53043573D01*
X138558789Y-53016199D01*
X138558850Y-53015719D01*
X138558886Y-53015387D01*
X138558928Y-53014922D01*
X138560630Y-52991079D01*
X138568524Y-52983456D01*
X138681476Y-52983456D01*
X138689370Y-52991079D01*
G36*
X138458062Y-47810069D02*
G01*
X138466953Y-47821338D01*
X138468545Y-47845130D01*
X138468584Y-47845581D01*
X138468606Y-47845795D01*
X138468675Y-47846349D01*
X138472618Y-47873091D01*
X138472705Y-47873610D01*
X138472728Y-47873731D01*
X138472835Y-47874236D01*
X138478903Y-47900322D01*
X138479062Y-47900934D01*
X138479070Y-47900962D01*
X138479195Y-47901374D01*
X138487404Y-47926804D01*
X138487774Y-47927805D01*
X138498087Y-47952456D01*
X138498329Y-47952999D01*
X138498357Y-47953058D01*
X138498563Y-47953472D01*
X138510951Y-47977296D01*
X138511217Y-47977781D01*
X138511296Y-47977918D01*
X138511543Y-47978329D01*
X138525995Y-48001338D01*
X138526262Y-48001745D01*
X138526402Y-48001950D01*
X138526698Y-48002365D01*
X138543206Y-48024569D01*
X138543500Y-48024949D01*
X138543709Y-48025209D01*
X138544010Y-48025570D01*
X138559667Y-48043634D01*
X138559475Y-48054608D01*
X138479608Y-48134475D01*
X138468634Y-48134667D01*
X138450570Y-48119010D01*
X138450209Y-48118709D01*
X138449949Y-48118500D01*
X138449569Y-48118206D01*
X138427365Y-48101698D01*
X138426950Y-48101402D01*
X138426745Y-48101262D01*
X138426338Y-48100996D01*
X138403330Y-48086544D01*
X138402885Y-48086276D01*
X138402747Y-48086197D01*
X138402296Y-48085951D01*
X138378472Y-48073563D01*
X138378058Y-48073357D01*
X138377999Y-48073329D01*
X138377456Y-48073087D01*
X138352805Y-48062774D01*
X138352766Y-48062868D01*
X138351804Y-48062403D01*
X138326374Y-48054195D01*
X138325850Y-48054038D01*
X138325821Y-48054030D01*
X138325321Y-48053903D01*
X138299236Y-48047835D01*
X138298731Y-48047728D01*
X138298610Y-48047705D01*
X138298091Y-48047618D01*
X138271349Y-48043675D01*
X138270795Y-48043606D01*
X138270581Y-48043584D01*
X138270130Y-48043545D01*
X138246338Y-48041953D01*
X138235069Y-48033062D01*
X138194215Y-47880963D01*
X138199713Y-47817833D01*
X138242833Y-47774713D01*
X138305963Y-47769215D01*
X138458062Y-47810069D01*
G37*
X138458062Y-47810069D02*
X138466953Y-47821338D01*
X138468545Y-47845130D01*
X138468584Y-47845581D01*
X138468606Y-47845795D01*
X138468675Y-47846349D01*
X138472618Y-47873091D01*
X138472705Y-47873610D01*
X138472728Y-47873731D01*
X138472835Y-47874236D01*
X138478903Y-47900322D01*
X138479062Y-47900934D01*
X138479070Y-47900962D01*
X138479195Y-47901374D01*
X138487404Y-47926804D01*
X138487774Y-47927805D01*
X138498087Y-47952456D01*
X138498329Y-47952999D01*
X138498357Y-47953058D01*
X138498563Y-47953472D01*
X138510951Y-47977296D01*
X138511217Y-47977781D01*
X138511296Y-47977918D01*
X138511543Y-47978329D01*
X138525995Y-48001338D01*
X138526262Y-48001745D01*
X138526402Y-48001950D01*
X138526698Y-48002365D01*
X138543206Y-48024569D01*
X138543500Y-48024949D01*
X138543709Y-48025209D01*
X138544010Y-48025570D01*
X138559667Y-48043634D01*
X138559475Y-48054608D01*
X138479608Y-48134475D01*
X138468634Y-48134667D01*
X138450570Y-48119010D01*
X138450209Y-48118709D01*
X138449949Y-48118500D01*
X138449569Y-48118206D01*
X138427365Y-48101698D01*
X138426950Y-48101402D01*
X138426745Y-48101262D01*
X138426338Y-48100996D01*
X138403330Y-48086544D01*
X138402885Y-48086276D01*
X138402747Y-48086197D01*
X138402296Y-48085951D01*
X138378472Y-48073563D01*
X138378058Y-48073357D01*
X138377999Y-48073329D01*
X138377456Y-48073087D01*
X138352805Y-48062774D01*
X138352766Y-48062868D01*
X138351804Y-48062403D01*
X138326374Y-48054195D01*
X138325850Y-48054038D01*
X138325821Y-48054030D01*
X138325321Y-48053903D01*
X138299236Y-48047835D01*
X138298731Y-48047728D01*
X138298610Y-48047705D01*
X138298091Y-48047618D01*
X138271349Y-48043675D01*
X138270795Y-48043606D01*
X138270581Y-48043584D01*
X138270130Y-48043545D01*
X138246338Y-48041953D01*
X138235069Y-48033062D01*
X138194215Y-47880963D01*
X138199713Y-47817833D01*
X138242833Y-47774713D01*
X138305963Y-47769215D01*
X138458062Y-47810069D01*
G36*
X130189520Y-47320983D02*
G01*
X130230271Y-47369507D01*
X130230271Y-47430493D01*
X130189520Y-47479017D01*
X130053081Y-47557679D01*
X130038822Y-47555998D01*
X130020875Y-47540301D01*
X130020469Y-47539960D01*
X130020301Y-47539825D01*
X130019921Y-47539531D01*
X129998225Y-47523410D01*
X129997789Y-47523100D01*
X129997686Y-47523030D01*
X129997259Y-47522753D01*
X129974524Y-47508599D01*
X129973980Y-47508278D01*
X129973953Y-47508263D01*
X129973573Y-47508060D01*
X129949788Y-47495883D01*
X129948818Y-47495437D01*
X129924094Y-47485299D01*
X129923585Y-47485103D01*
X129923524Y-47485081D01*
X129923040Y-47484918D01*
X129897434Y-47476831D01*
X129896896Y-47476674D01*
X129896743Y-47476633D01*
X129896284Y-47476519D01*
X129869796Y-47470469D01*
X129869321Y-47470370D01*
X129869077Y-47470324D01*
X129868573Y-47470239D01*
X129841199Y-47466211D01*
X129840719Y-47466150D01*
X129840387Y-47466114D01*
X129839922Y-47466072D01*
X129816079Y-47464370D01*
X129808456Y-47456476D01*
X129808456Y-47343524D01*
X129816079Y-47335630D01*
X129839922Y-47333928D01*
X129840387Y-47333886D01*
X129840719Y-47333850D01*
X129841199Y-47333789D01*
X129868573Y-47329761D01*
X129869077Y-47329676D01*
X129869321Y-47329630D01*
X129869796Y-47329531D01*
X129896284Y-47323481D01*
X129896743Y-47323367D01*
X129896896Y-47323326D01*
X129897434Y-47323169D01*
X129923040Y-47315082D01*
X129923524Y-47314919D01*
X129923585Y-47314897D01*
X129924094Y-47314701D01*
X129948818Y-47304563D01*
X129949788Y-47304117D01*
X129973573Y-47291940D01*
X129974131Y-47291636D01*
X129974157Y-47291621D01*
X129974523Y-47291401D01*
X129997259Y-47277247D01*
X129997733Y-47276937D01*
X129997835Y-47276867D01*
X129998223Y-47276590D01*
X130019920Y-47260469D01*
X130020301Y-47260175D01*
X130020469Y-47260040D01*
X130020875Y-47259699D01*
X130038822Y-47244002D01*
X130053081Y-47242321D01*
X130189520Y-47320983D01*
G37*
X130189520Y-47320983D02*
X130230271Y-47369507D01*
X130230271Y-47430493D01*
X130189520Y-47479017D01*
X130053081Y-47557679D01*
X130038822Y-47555998D01*
X130020875Y-47540301D01*
X130020469Y-47539960D01*
X130020301Y-47539825D01*
X130019921Y-47539531D01*
X129998225Y-47523410D01*
X129997789Y-47523100D01*
X129997686Y-47523030D01*
X129997259Y-47522753D01*
X129974524Y-47508599D01*
X129973980Y-47508278D01*
X129973953Y-47508263D01*
X129973573Y-47508060D01*
X129949788Y-47495883D01*
X129948818Y-47495437D01*
X129924094Y-47485299D01*
X129923585Y-47485103D01*
X129923524Y-47485081D01*
X129923040Y-47484918D01*
X129897434Y-47476831D01*
X129896896Y-47476674D01*
X129896743Y-47476633D01*
X129896284Y-47476519D01*
X129869796Y-47470469D01*
X129869321Y-47470370D01*
X129869077Y-47470324D01*
X129868573Y-47470239D01*
X129841199Y-47466211D01*
X129840719Y-47466150D01*
X129840387Y-47466114D01*
X129839922Y-47466072D01*
X129816079Y-47464370D01*
X129808456Y-47456476D01*
X129808456Y-47343524D01*
X129816079Y-47335630D01*
X129839922Y-47333928D01*
X129840387Y-47333886D01*
X129840719Y-47333850D01*
X129841199Y-47333789D01*
X129868573Y-47329761D01*
X129869077Y-47329676D01*
X129869321Y-47329630D01*
X129869796Y-47329531D01*
X129896284Y-47323481D01*
X129896743Y-47323367D01*
X129896896Y-47323326D01*
X129897434Y-47323169D01*
X129923040Y-47315082D01*
X129923524Y-47314919D01*
X129923585Y-47314897D01*
X129924094Y-47314701D01*
X129948818Y-47304563D01*
X129949788Y-47304117D01*
X129973573Y-47291940D01*
X129974131Y-47291636D01*
X129974157Y-47291621D01*
X129974523Y-47291401D01*
X129997259Y-47277247D01*
X129997733Y-47276937D01*
X129997835Y-47276867D01*
X129998223Y-47276590D01*
X130019920Y-47260469D01*
X130020301Y-47260175D01*
X130020469Y-47260040D01*
X130020875Y-47259699D01*
X130038822Y-47244002D01*
X130053081Y-47242321D01*
X130189520Y-47320983D01*
G36*
X123658062Y-45910069D02*
G01*
X123666953Y-45921338D01*
X123668545Y-45945130D01*
X123668584Y-45945581D01*
X123668606Y-45945795D01*
X123668675Y-45946349D01*
X123672618Y-45973091D01*
X123672705Y-45973610D01*
X123672728Y-45973731D01*
X123672835Y-45974236D01*
X123678903Y-46000322D01*
X123679062Y-46000934D01*
X123679070Y-46000962D01*
X123679195Y-46001374D01*
X123687404Y-46026804D01*
X123687774Y-46027805D01*
X123698087Y-46052456D01*
X123698329Y-46052999D01*
X123698357Y-46053058D01*
X123698563Y-46053472D01*
X123710951Y-46077296D01*
X123711217Y-46077781D01*
X123711296Y-46077918D01*
X123711543Y-46078329D01*
X123725995Y-46101338D01*
X123726262Y-46101745D01*
X123726402Y-46101950D01*
X123726698Y-46102365D01*
X123743206Y-46124569D01*
X123743500Y-46124949D01*
X123743709Y-46125209D01*
X123744010Y-46125570D01*
X123759667Y-46143634D01*
X123759475Y-46154608D01*
X123679608Y-46234475D01*
X123668634Y-46234667D01*
X123650570Y-46219010D01*
X123650209Y-46218709D01*
X123649949Y-46218500D01*
X123649569Y-46218206D01*
X123627365Y-46201698D01*
X123626950Y-46201402D01*
X123626745Y-46201262D01*
X123626338Y-46200996D01*
X123603330Y-46186544D01*
X123602885Y-46186276D01*
X123602747Y-46186197D01*
X123602296Y-46185951D01*
X123578472Y-46173563D01*
X123578058Y-46173357D01*
X123577999Y-46173329D01*
X123577456Y-46173087D01*
X123552805Y-46162774D01*
X123552766Y-46162868D01*
X123551804Y-46162403D01*
X123526374Y-46154195D01*
X123525850Y-46154038D01*
X123525821Y-46154030D01*
X123525321Y-46153903D01*
X123499236Y-46147835D01*
X123498712Y-46147725D01*
X123498590Y-46147702D01*
X123498090Y-46147618D01*
X123471349Y-46143675D01*
X123470795Y-46143606D01*
X123470581Y-46143584D01*
X123470130Y-46143545D01*
X123446338Y-46141953D01*
X123435069Y-46133062D01*
X123394215Y-45980963D01*
X123399713Y-45917833D01*
X123442833Y-45874713D01*
X123505963Y-45869215D01*
X123658062Y-45910069D01*
G37*
X123658062Y-45910069D02*
X123666953Y-45921338D01*
X123668545Y-45945130D01*
X123668584Y-45945581D01*
X123668606Y-45945795D01*
X123668675Y-45946349D01*
X123672618Y-45973091D01*
X123672705Y-45973610D01*
X123672728Y-45973731D01*
X123672835Y-45974236D01*
X123678903Y-46000322D01*
X123679062Y-46000934D01*
X123679070Y-46000962D01*
X123679195Y-46001374D01*
X123687404Y-46026804D01*
X123687774Y-46027805D01*
X123698087Y-46052456D01*
X123698329Y-46052999D01*
X123698357Y-46053058D01*
X123698563Y-46053472D01*
X123710951Y-46077296D01*
X123711217Y-46077781D01*
X123711296Y-46077918D01*
X123711543Y-46078329D01*
X123725995Y-46101338D01*
X123726262Y-46101745D01*
X123726402Y-46101950D01*
X123726698Y-46102365D01*
X123743206Y-46124569D01*
X123743500Y-46124949D01*
X123743709Y-46125209D01*
X123744010Y-46125570D01*
X123759667Y-46143634D01*
X123759475Y-46154608D01*
X123679608Y-46234475D01*
X123668634Y-46234667D01*
X123650570Y-46219010D01*
X123650209Y-46218709D01*
X123649949Y-46218500D01*
X123649569Y-46218206D01*
X123627365Y-46201698D01*
X123626950Y-46201402D01*
X123626745Y-46201262D01*
X123626338Y-46200996D01*
X123603330Y-46186544D01*
X123602885Y-46186276D01*
X123602747Y-46186197D01*
X123602296Y-46185951D01*
X123578472Y-46173563D01*
X123578058Y-46173357D01*
X123577999Y-46173329D01*
X123577456Y-46173087D01*
X123552805Y-46162774D01*
X123552766Y-46162868D01*
X123551804Y-46162403D01*
X123526374Y-46154195D01*
X123525850Y-46154038D01*
X123525821Y-46154030D01*
X123525321Y-46153903D01*
X123499236Y-46147835D01*
X123498712Y-46147725D01*
X123498590Y-46147702D01*
X123498090Y-46147618D01*
X123471349Y-46143675D01*
X123470795Y-46143606D01*
X123470581Y-46143584D01*
X123470130Y-46143545D01*
X123446338Y-46141953D01*
X123435069Y-46133062D01*
X123394215Y-45980963D01*
X123399713Y-45917833D01*
X123442833Y-45874713D01*
X123505963Y-45869215D01*
X123658062Y-45910069D01*
M02*
